<?xml version="1.0" encoding="UTF-8"?>
<svg width="196.2mm" height="84.233mm" version="1.1" viewBox="0 0 196.2 84.233" xml:space="preserve" xmlns="http://www.w3.org/2000/svg" xmlns:xlink="http://www.w3.org/1999/xlink"><g transform="matrix(.26458 0 0 .26458 -39.615 -20.148)"><g transform="translate(121.88 -218.75)"><path d="m116.68 413.84v4e-3c-2.9278 0.0422-6.7754 0.9111-6.6256 1.6144 0.0762 0.35804-0.12509 0.50161-0.49804 0.35339-1.0237-0.40685-4.9464 1.8825-4.775 2.787 0.11298 0.59589 0.0248 0.65224-0.38177 0.24296-0.40603-0.40878-0.87011-0.18025-1.9921 0.98187-0.77329 0.80091-1.4919 1.3802-1.6375 1.3292h-2e-3l-2e-3 -2e-3c-4.7e-4 -3.4e-4 -3e-3 -3e-3 -4e-3 -4e-3h-2e-3l-2e-3 -2e-3c-0.10289-0.10654-0.43736 0.1191-0.74415 0.50198-0.38144 0.47606-0.40255 0.69674-0.0639 0.69674 0.88418 0 0.52354 0.84278-0.4961 1.1586-1.0264 0.3179-6.5055 5.9425-6.5055 6.6783 0 0.22862-0.59404 1.0182-1.3216 1.7549-0.72761 0.73668-1.3236 1.5657-1.3236 1.8433s-0.3006 0.81559-0.66663 1.1947c-0.3659 0.37911-0.53305 0.90887-0.37207 1.1786 0.08057 0.13508 0.10023 0.22734 0.07174 0.26304l-4e-3 4e-3c-0.0375 0.0243-0.1262-5.6e-4 -0.25385-0.0823-0.28686-0.18362-1.0456 0.89094-1.8991 2.6866-0.7824 1.646-1.5849 3.098-1.7829 3.2247-0.6467 0.41395-3.6239 8.0884-4.149 10.696-0.06876 0.34147-0.15133 0.62819-0.1938 0.67867l-4e-3 4e-3h-2e-3l-2e-3 2e-3h-4e-3c-0.07064 0-0.14213 0.26934-0.82555 3.1163-0.23054 0.96038-0.73474 2.107-1.1201 2.548-0.38535 0.44102-0.69958 1.0299-0.69958 1.3071s-1.2896 3.0767-2.8661 6.2225c-1.5765 3.1458-2.8661 5.9971-2.8661 6.335s-0.24912 0.87066-0.5523 1.1847c-0.30317 0.314-0.56818 0.71567-0.58912 0.8915-0.04395 0.36916-0.41226 1.3422-1.5678 4.1504-0.45381 1.1029-0.90108 2.4402-0.99414 2.9717-0.09307 0.53154-0.76208 3.1247-1.4864 5.7607-1.9127 6.9612-2.6882 10.689-3.1374 15.069-0.43186 4.2109-0.51819 15.481-0.12402 16.198 0.13368 0.24324 0.30312 1.0656 0.37594 1.8272 0.07283 0.76157 0.19237 1.9 0.26549 2.528 0.07313 0.628-0.133 1.6083-0.45734 2.1806-0.32435 0.57229-0.47124 1.2417-0.32557 1.4858 0.14566 0.2441 0.05527 0.44374-0.20154 0.44374-0.25685 0-0.46798 0.35954-0.46897 0.79915-2e-3 0.4396-0.32081 1.415-0.70926 2.1686-1.1463 2.2237-2.1987 4.8587-2.0425 5.0559l4e-3 4e-3h2e-3v2e-3h4e-3l4e-3 4e-3h4e-3c0.0122 1e-3 0.02967-4e-3 0.04842-0.016l2e-3 -2e-3h2e-3l2e-3 -2e-3h2e-3l2e-3 -2e-3c4e-3 -7.7e-4 0.01042-1e-3 0.01359-2e-3 9.92e-4 -4e-5 5e-3 -1.2e-4 6e-3 0h6e-3l2e-3 2e-3h2e-3v2e-3h2e-3l2e-3 2e-3c2.58e-4 4.9e-4 3e-3 5e-3 4e-3 6e-3 0.0504 0.15472-0.41443 1.3299-1.1317 2.8292-2.1525 4.4989-3.3651 7.3615-3.2033 7.5598 0.07818 0.0958-0.1236 0.50518-0.44765 0.90959-0.32444 0.40441-0.46893 0.9379-0.32169 1.1847 0.14725 0.24677-0.0512 0.63297-0.44184 0.85939-0.39064 0.22643-0.67879 0.55425-0.6395 0.72886 0.03929 0.17461-0.35775 1.2362-0.88174 2.3573-0.52399 1.1211-0.99627 2.2957-1.0503 2.6103-0.05408 0.31455-0.73754 1.8636-1.5193 3.4436-0.78176 1.58-1.2853 3.1013-1.1182 3.3813 0.08354 0.14001 0.1114 0.2391 0.09108 0.28313v6e-3h-4e-3c-2e-3 2e-3 -0.0079 6e-3 -0.0099 8e-3 -0.03145 0.0203-0.09644 5e-3 -0.18991-0.0542-0.22876-0.14642-0.87367 0.79944-1.4321 2.1003-0.55843 1.3008-2.5292 5.5496-4.3796 9.4432-1.8504 3.8936-3.3731 7.1832-3.3855 7.3088-0.0124 0.12559-0.9616 1.9464-2.1084 4.0459-1.1468 2.0995-2.0852 4.0005-2.0852 4.2246 0 0.2241-0.17696 0.40761-0.39339 0.40761-0.54262 0-4.899 8.9879-4.899 10.108 0 0.49831-0.19091 0.78319-0.42634 0.63249-0.51001-0.32646-1.103 1.7879-0.69376 2.4738 0.17767 0.29774-9.53e-4 0.36425-0.47284 0.1767-0.50479-0.20062-0.65134-0.12698-0.44378 0.22087 0.17114 0.28679 0.01578 0.98784-0.34494 1.5601-0.85711 1.3599-1.3092 4.0098-0.68407 4.0098 0.26028 0 0.3495 0.2066 0.1996 0.4578-0.14989 0.2512 0.06062 0.4558 0.46703 0.4558 0.56702 0 0.6844 0.2897 0.50773 1.2469-0.09923 0.53767-0.12755 0.82361-0.07362 0.88549 2.19e-4 1.9e-4 5e-3 3e-3 6e-3 4e-3h2e-3v2e-3h4e-3c2.48e-4 8e-5 5e-3 2e-3 6e-3 2e-3v2e-3c0.05705 7e-3 0.16904-0.11063 0.33719-0.33934 0.8208-1.1164 2.1058-0.57974 1.7848 0.74494h-2e-3c-0.24116 0.99518-0.12819 1.1084 1.1027 1.1084 0.75391 0 1.372-0.21787 1.372-0.4839 0-0.26602-0.24912-0.3292-0.5523-0.14056-0.13327 0.083-0.22025 0.11976-0.25581 0.11044h-4e-3v-4e-3l-2e-3 -2e-3h-2e-3l-2e-3 -2e-3v-2e-3h-2e-3l-2e-3 -2e-3v-4e-3c-0.01449-0.0546 0.09079-0.22968 0.31976-0.52207 0.69228-0.88407 1.4658-0.61625 1.0968 0.37951-0.13663 0.36875-0.03016 0.67064 0.23836 0.67064 0.26848 0 0.49213-0.35954 0.4961-0.79915 6e-3 -0.68306 0.06876-0.69993 0.43409-0.11445 0.25263 0.4049 0.43012 0.46378 0.43409 0.14456 4e-3 -0.29707 0.40248-0.6698 0.88755-0.82926 0.48508-0.15947 0.88368-0.59713 0.88368-0.97183 0-0.40386 0.21002-0.54716 0.51548-0.35139 0.35003 0.22407 0.4218 0.0779 0.22479-0.45378-0.18196-0.49103-0.1181-0.67192 0.17247-0.48592 0.25504 0.16326 0.85386-0.0683 1.3294-0.51402 0.6626-0.62107 0.73274-0.89571 0.30231-1.1786-0.41862-0.27512-0.37797-0.37235 0.15697-0.37749 0.39475-4e-3 0.9635-0.31393 1.2654-0.69073 0.42053-0.5248 0.42471-0.68671 0.01746-0.68671-0.29245 0-0.44513-0.25623-0.33912-0.57023 0.10601-0.31401 0.51928-0.50954 0.91856-0.43572 0.40173 0.0742 0.72671-0.16496 0.72671-0.53411 0-0.36688 0.17122-0.73555 0.37982-0.81923 0.20861-0.0838 1.3217-1.7954 2.4747-3.805 1.153-2.0096 2.7623-4.7637 3.5754-6.1201 0.81314-1.3564 1.3847-2.6258 1.2693-2.8191-0.11537-0.19334 0.0512-0.62351 0.37208-0.95777 0.32088-0.33425 1.1433-1.842 1.8274-3.3492 0.6841-1.5072 1.4658-2.8916 1.7363-3.0761 0.28019-0.1911 0.30148-0.34116 0.0504-0.34939-0.28975-9e-3 -0.28759-0.12864 6e-3 -0.34937 0.66505-0.5008 4.1839-9.3384 4.1839-10.507 0-0.30915 0.19929-0.56222 0.44184-0.56222 0.24253 0 0.4399-0.3979 0.4399-0.88548 0-0.48759 0.16939-0.99422 0.37595-1.1264 0.20657-0.13222 0.72884-1.2241 1.1608-2.4256 0.43195-1.2014 1.8637-4.727 3.1801-7.8349 1.3164-3.1079 2.287-5.9346 2.1588-6.2807-0.13726-0.37046 0.05219-0.62847 0.46121-0.62847 0.43602 0 0.60128-0.25435 0.44185-0.6847-0.13961-0.3768-0.06558-0.6867 0.16472-0.6867 0.23031 0 0.55276-0.56415 0.71702-1.255 0.16425-0.69081 0.56707-1.6842 0.89337-2.2067 0.3263-0.52246 0.45904-1.0866 0.2965-1.2549-0.16254-0.16836-0.064-0.30722 0.21898-0.30722 0.28296 0 0.51548-0.19883 0.51548-0.44374 0-0.24492 0.56453-1.7368 1.2558-3.3131 0.69124-1.5763 1.3921-3.4424 1.5581-4.1483l0.30231-1.2831 1.4612 0.93368c0.80324 0.51417 2.18 1.0298 3.0599 1.1465 0.87991 0.11667 1.9529 0.40381 2.3836 0.63651 1.1704 0.63227 8.4996 0.69618 8.4996 0.0743 0-0.2789 0.17255-0.39618 0.38369-0.26103 0.78088 0.49986 10.298-2.7493 11.081-3.7829 0.32471-0.42886 1.7521-1.324 3.7498-2.3533 2.2058-1.1365 8.3021-4.9918 8.5984-5.4374 0.12127-0.18239 0.51794-0.47867 0.88174-0.6586 1.5624-0.77274 2.8337-1.6497 2.4262-1.6746-0.0208-1e-3 -0.037-7e-3 -0.0465-0.0141l-0.01-0.01v-4e-3l-2e-3 -2e-3c-2.7e-4 -2e-3 -8e-5 -8e-3 0-0.0103 0.0131-0.11934 0.51613-0.47968 1.2693-0.89151 0.90952-0.4973 1.655-1.1041 1.655-1.3493 0-0.24521 0.19495-0.44575 0.43409-0.44575 0.59101 0 6.2422-4.7386 7.05-5.9113 0.35672-0.51784 0.81372-0.9397 1.0155-0.9397 0.53891 0 7.432-7.2341 8.922-9.3629 0.70332-1.0048 1.6399-2.0984 2.0794-2.4296 0.43944-0.33119 0.68418-0.79403 0.54455-1.028-0.13964-0.23401-0.0782-0.42568 0.13759-0.42568 0.70725 0 6.6092-9.1257 5.9125-9.142-0.027-6.4e-4 -0.0493-7e-3 -0.062-0.016l-0.012-0.012c-0.0219-0.0575 0.0927-0.18692 0.312-0.3313 0.71318-0.46933 4.1803-7.5382 4.9726-10.138 0.34451-1.1304 0.74366-2.1574 0.88755-2.283 0.56203-0.4906 1.8882-4.7921 1.8546-6.0157-0.0195-0.71108 0.17212-1.2931 0.42439-1.2931 0.25228 0 0.34871-0.29402 0.21511-0.65458-0.13359-0.36058-0.0674-0.72009 0.14728-0.79915 0.62624-0.23057 0.89846-2.6519 0.30231-2.6886-0.28711-0.0177-0.12463-0.20778 0.36045-0.42367 0.48507-0.21589 0.61893-0.408 0.29843-0.42568-0.44092-0.0243-0.41388-0.20587 0.11046-0.74895 0.38114-0.39474 0.69377-1.3092 0.69377-2.03 0-0.72084 0.17541-1.4211 0.38951-1.5582 0.21409-0.13705 0.39609-1.1257 0.40502-2.1966 9e-3 -1.071 0.0461-2.051 0.0833-2.1766s0.16044-1.0319 0.27517-2.0139c0.19445-1.6641 0.15417-1.7404-0.5833-1.1405-0.33487 0.27239-0.51661 0.41296-0.56198 0.41564h-8e-3v-2e-3h-2e-3v-2e-3l-2e-3 -2e-3v-6e-3c8e-3 -0.0499 0.13332-0.22485 0.36238-0.52809 0.81303-1.0763 0.39568-7.3463-0.59298-8.9091-0.50012-0.79024-0.54493-1.0487-0.14147-0.79714 0.19607 0.12219 0.31355 0.18422 0.35269 0.17469h4e-3l8e-3 -8e-3v-2e-3l2e-3 -2e-3v-2e-3c7e-3 -0.0532-0.11694-0.23196-0.37401-0.5602-0.33285-0.42503-0.49726-0.77306-0.36433-0.77306 4.2e-4 -4e-5 3e-3 -3e-5 4e-3 0h2e-3l2e-3 -4e-3h2e-3l2e-3 -2e-3 2e-3 -4e-3 6e-3 -6e-3c0.11913-0.22551-0.95742-3.1875-2.5348-6.9534-0.39456-0.942-0.92464-1.7128-1.1782-1.7128-0.25356 0-0.34209-0.19769-0.19767-0.43973 0.14444-0.24204-0.14169-0.85984-0.63562-1.3714-0.49392-0.51157-0.89918-1.1342-0.89918-1.3854 0-0.25119-0.19737-0.45781-0.4399-0.45781-0.24254 0-0.44184-0.21989-0.44184-0.48791 0-0.65379-4.4836-5.9029-5.0579-5.9213-0.24922-8e-3 -1.1394-0.72707-1.9766-1.5983-1.5604-1.6239-2.2266-1.9529-2.2266-1.1003 0 0.26605-0.21183 0.34855-0.4709 0.18272-0.25909-0.16584-0.36394-0.58828-0.23449-0.93769 0.14209-0.3835-0.25186-0.89554-0.99413-1.2931-0.6763-0.36222-1.5043-0.99986-1.839-1.4176-0.56408-0.70393-0.63119-0.69748-0.92826 0.0843-0.1234 0.32479-0.20151 0.50178-0.25193 0.52406l-2e-3 2e-3h-4e-3l-2e-3 2e-3c-8.4e-4 -1e-5 -5e-3 9e-5 -6e-3 0l-2e-3 -2e-3h-2e-3l-2e-3 -2e-3h-4e-3v-2e-3h-2e-3l-2e-3 -2e-3c-0.0425-0.0483-0.0608-0.28086-0.0736-0.70478-0.0215-0.71246-0.30129-1.028-0.91274-1.028-0.48507 0-0.88174-0.2046-0.88174-0.4558s-0.213-0.4578-0.47285-0.4578c-0.25987 0-0.80406-0.34535-1.2112-0.76702-0.6925-0.71725-0.75041-0.71657-0.88367 0-0.12338 0.66341-0.22625 0.67896-0.77129 0.11444-0.3461-0.35846-0.62981-0.83061-0.62981-1.0501 0-0.46753-3.4209-1.7624-5.9532-2.2529-2.1427-0.41498-2.394-0.47371-2.5348-0.5843-0.0606-0.0476-1.1031-0.1696-2.3158-0.27107-0.36637-0.0306-0.76579-0.0402-1.184-0.0341zm617.88 20.147v4e-3c-0.27995-9e-3 -0.56099-5e-3 -0.84105 0.012-0.74682 0.0456-1.4886 0.18513-2.1937 0.42768-2.069 0.71177-3.8334 2.1042-3.3293 2.6264 0.13418 0.13897-0.36071 0.47174-1.1007 0.73891-0.73999 0.26718-1.3468 0.68734-1.3468 0.93367s-0.25973 0.7182-0.57749 1.0502c-0.80331 0.83914-3.6471 7.1507-4.3118 9.5677-0.3023 1.0992-0.71496 2.1929-0.91662 2.4316-0.20164 0.23864-0.36627 0.86597-0.36627 1.3935s-0.17958 1.1548-0.3992 1.3935c-0.40319 0.43813-2.9282 8.6683-3.5657 11.624-0.18963 0.87921-0.6425 2.4297-1.0058 3.4456-0.36327 1.0159-0.76914 2.6607-0.90306 3.6544-0.13394 0.99374-0.6506 3.3466-1.1472 5.2306-0.49664 1.884-0.9049 4.0117-0.90887 4.7266-4e-3 0.71495-0.29825 2.3577-0.65307 3.6524-0.35481 1.2947-0.74134 3.6902-0.85848 5.323-0.11715 1.6328-0.23966 2.9697-0.27131 2.9697h-2e-3l-2e-3 2e-3c-0.0377 0.047-0.13505 0.44059-0.22286 0.91159-1.3884 7.4453-0.96751 31.794 0.73834 42.704 1.2812 8.1943 4.1881 16.439 6.4435 18.276 1.2856 1.0474 2.4448 1.1616 3.1278 0.30922 0.34802-0.43432 0.23834-1.7694-0.39921-4.9093-0.48167-2.3723-0.96822-5.6499-1.0833-7.2827-0.11506-1.6328-0.30397-3.6868-0.41858-4.566l-0.20736-1.5983 6.49-0.0442c6.3127-0.0431 6.7347-0.10885 15.24-2.3834 4.8103-1.2865 9.3432-2.6498 10.075-3.0279 0.73184-0.37814 2.0365-0.82431 2.8991-0.9919s2.0841-0.58172 2.713-0.92163c0.62892-0.3399 1.3965-0.6204 1.7073-0.62245 1.2504-6e-3 9.158-3.0969 8.2554-3.2267-0.04-6e-3 -0.0694-0.0208-0.0814-0.0341l-2e-3 -2e-3v-4e-3l-2e-3 -2e-3v-0.01h2e-3v-2e-3c0.0238-0.0757 0.30168-0.21192 0.74415-0.34736 0.60635-0.1856 1.0528-0.57566 0.9922-0.86742-0.0606-0.29177 0.12838-0.47846 0.42052-0.41564 0.52258 0.11232 0.62689-0.15959 0.7364-1.9095 0.0303-0.48446 0.36764-1.2023 0.74803-1.5963 0.7882-0.81636 0.50521-2.3226-0.5116-2.7268-0.3672-0.14593-0.55447-0.0764-0.41665 0.15461 0.13783 0.23097 0.0185 0.56719-0.26549 0.74896-0.31207 0.19977-0.39906 0.13311-0.21898-0.16867 0.16384-0.27458 0.0252-0.66559-0.30813-0.86943-0.33335-0.20384-0.69749-0.66925-0.81003-1.0341-0.5888-1.9084-8.9154-1.0037-15.8 1.7168-0.60635 0.23961-1.2472 0.47683-1.4224 0.52607-0.17516 0.0491-1.3652 0.4943-2.6452 0.9899-1.2801 0.4956-3.7167 1.3832-5.4145 1.9718s-3.8804 1.3831-4.8505 1.767c-6.4094 2.5357-7.986 3.1992-8.3775 3.5179-0.55637 0.45287-9.9255 3.3421-10.131 3.1243-0.0838-0.0886-0.20591-1.0863-0.2713-2.2167-0.0654-1.1304-0.28213-2.5287-0.4806-3.1082-0.21448-0.62622-0.19511-0.94977 0.0465-0.79512 0.23867 0.15275 0.31349-0.73149 0.18216-2.1424-0.12304-1.322-0.2601-5.7943-0.30425-9.9392-0.0442-4.1448-0.24256-7.803-0.44183-8.128-0.20726-0.33806-0.14069-0.86584 0.15503-1.2349 0.28431-0.35479 0.38901-0.86021 0.23254-1.1224-0.15646-0.2622-0.1074-0.47587 0.11046-0.47587 0.45811 0 0.4034-2.3148-0.0736-3.1143-0.17724-0.29696-0.13634-0.54013 0.0911-0.54013 0.67819 0 1.52-2.6261 1.312-4.0941-0.10643-0.75098-0.0328-1.421 0.16472-1.4899 0.57326-0.20003 0.75902-3.0918 0.1996-3.1082-0.27749-8e-3 -0.20345-0.25931 0.1686-0.57226 0.79186-0.66606 1.1089-2.1545 0.45928-2.1545-0.25317 0-0.45928-0.21789-0.45928-0.48392 0-0.26608 0.19772-0.3558 0.4399-0.20078 0.24218 0.15501 0.40824-0.09 0.37014-0.54414-0.12825-1.5302 0.0687-2.48 0.46121-2.2288 0.21451 0.1373 0.62262-0.62216 0.90694-1.6866 0.28433-1.0645 0.63036-2.2212 0.76934-2.5701 0.17732-0.44522 0.0723-0.52138-0.35464-0.255-0.20917 0.13049-0.3341 0.19994-0.37401 0.19075l-2e-3 -2e-3h-2e-3l-2e-3 -2e-3h-2e-3l-6e-3 -6e-3v-2e-3c-1.4e-4 -7.5e-4 8e-5 -5e-3 0-6e-3 -9.9e-4 -0.0558 0.12381-0.23372 0.37789-0.55819 0.33028-0.42183 0.48573-1.0778 0.34494-1.4577-0.14079-0.38001-0.0404-0.69273 0.22286-0.69273 0.2711 0 0.38925-0.48742 0.2713-1.1264-0.11451-0.62041-0.06-1.0342 0.12209-0.91762 0.30791 0.19709 0.88761-0.78403 1.0852-1.8372 0.0471-0.2512 0.13665-0.5591 0.19767-0.6847 0.061-0.12561 0.15775-0.75617 0.2151-1.3995 0.0573-0.64335 0.51404-2.0815 1.0154-3.1966 1.3283-2.9541 2.6818-7.019 2.4398-7.2767-4e-3 -3e-3 -0.0149-9e-3 -0.0213-0.012h-4e-3c-0.0407-9e-4 -0.068-0.0103-0.0833-0.0261-0.0437-0.0537 0.0349-0.17683 0.22286-0.31525 0.25061-0.18456 1.0123-1.7755 1.6918-3.5339 0.67952-1.7584 1.5568-3.8124 1.9495-4.566 0.39272-0.7536 0.70463-1.4747 0.69183-1.6003-0.0428-0.41865 2.1603-3.6524 2.4882-3.6524 0.54912 0 2.6452 1.8666 2.6452 2.3553 0 0.50047 3.9781 5.9966 4.5211 6.2466 0.1819 0.0837 0.32944 0.41782 0.32944 0.74293s0.31224 0.85871 0.69376 1.1867c0.38154 0.32795 1.0844 1.3288 1.56 2.2248 0.47557 0.89602 1.4385 2.5541 2.1414 3.6845 2.2792 3.6657 4.6851 9.1922 5.0327 11.562 0.0439 0.29902 0.19201 0.74874 0.32944 0.99994 0.13746 0.25121 0.21086 1.022 0.16472 1.7128-0.0462 0.69081 0.0338 1.2562 0.17829 1.257 1e-3 0 6e-3 -3.8e-4 8e-3 0 9.9e-4 2.5e-4 3e-3 2e-3 4e-3 2e-3l4e-3 4e-3h2e-3v2e-3c0.13531 0.10014 0.24611 1.2043 0.24611 2.538 0 1.947 0.18042 2.6474 0.77128 2.9898 0.42443 0.24596 0.78701 0.7977 0.80616 1.2248 0.0191 0.42712 0.12849 0.54034 0.24224 0.253 0.20664-0.52197 1.9282-0.31423 1.9301 0.23292 4.7e-4 0.1591 0.62325 0.33613 1.3836 0.39154 0.7604 0.0554 1.2622-0.0234 1.1162-0.17468-0.146-0.15122-0.0724-0.64715 0.16279-1.1024 0.35584-0.6887 0.27652-0.79726-0.46897-0.64856-1.1382 0.22703-0.7462-0.49692 0.44377-0.81922 0.48919-0.1325 0.78639-0.0678 0.66082 0.14256-0.42177 0.70684 0.56368 0.89916 1.1104 0.21686 0.43582-0.54388 0.40264-0.72873-0.16859-0.95577-0.38973-0.1549-0.59786-0.46977-0.46122-0.69876 0.13664-0.22901 0.43504-0.29712 0.66082-0.1526 0.22577 0.14452 0.42398-6e-3 0.44184-0.33532 0.38519-7.0844 0.38373-10.126-6e-3 -10.612-0.25296-0.31574-0.34676-0.69292-0.20735-0.83731 0.32588-0.33752-1.3902-6.9254-2.3487-9.0155-0.40323-0.87921-0.78042-1.8872-0.83717-2.2388-0.0567-0.35165-0.36284-0.81031-0.68214-1.02-0.22992-0.15103-0.35285-0.28726-0.33719-0.35137 2.6e-4 -7.7e-4 1e-3 -6e-3 2e-3 -8e-3 5e-4 -9.6e-4 3e-3 -5e-3 4e-3 -6e-3 0.0129-0.0138 0.0392-0.0272 0.0756-0.0281h2e-3c2e-3 -3.5e-4 6e-3 -1e-3 8e-3 -2e-3h2e-3l2e-3 -2e-3h2e-3l2e-3 -2e-3c7.7e-4 -9.5e-4 3e-3 -5e-3 4e-3 -6e-3 0.0746-0.15515-0.54564-1.4356-1.4534-2.9717-0.96755-1.6372-1.7596-3.0689-1.7596-3.1826 0-0.31379-4.2317-6.668-5.4784-8.2264-2.654-3.3175-4.4733-5.2527-4.9397-5.2527-0.27679 0-0.61777-0.45374-0.75771-1.008-0.13994-0.55424-0.37255-0.88495-0.51742-0.7349-0.14487 0.15004-0.88605-0.31586-1.6453-1.0341-1.3153-1.2442-3.232-1.9522-5.1916-2.018zm-617.3 0.3032c0.30418-0.0156 0.62355-4e-3 0.97475 0.0321 2.3379 0.24216 2.997 0.44668 3.7304 1.1525 0.58389 0.56199 1.4321 0.74841 2.7344 0.60438 0.23591-0.0261 0.37677-0.0273 0.41664 4e-3l4e-3 4e-3v2e-3l2e-3 2e-3v2e-3l2e-3 2e-3v2e-3c-3e-5 1e-3 -5e-5 4e-3 0 4e-3v2e-3c-2e-3 0.0536-0.12854 0.15994-0.37983 0.33532-0.47452 0.33117-0.1688 0.6664 1.3216 1.4477 1.0675 0.55957 2.1005 1.3004 2.2945 1.6445 0.19396 0.34412 0.56604 0.62445 0.82748 0.62445 1.2407 0 8.7418 9.3864 8.7418 10.939 0 0.26326 0.16079 0.47988 0.35657 0.47988s0.71852 1.4509 1.1627 3.2247c0.67383 2.6908 0.76302 4.2509 0.5368 9.4171-0.14913 3.4056-0.44094 6.4243-0.64919 6.7084-0.20826 0.28417-0.62606 1.7496-0.92631 3.2568-0.50719 2.5461-1.2015 4.9053-2.4127 8.1882-0.27134 0.73548-1.5224 3.4451-2.7809 6.0197-1.9962 4.0839-3.6156 6.5815-8.517 13.142-0.96503 1.2916-2.5803 2.9247-8.0732 8.1622-0.72451 0.69081-1.4373 1.2568-1.5833 1.257-0.14594 1.9e-4 -1.0588 0.73398-2.029 1.6324s-2.7063 2.2695-3.8583 3.046c-1.152 0.77647-2.0949 1.5442-2.0949 1.7047 0 0.16056-0.7514 0.63419-1.6704 1.0542-0.91906 0.41998-2.1018 1.1791-2.6278 1.6866-0.52604 0.50758-1.0948 0.92365-1.2635 0.92365-0.16874 0-1.6152 0.76501-3.215 1.7007s-4.4974 2.2631-6.4377 2.9496c-2.5048 0.88625-4.3579 1.2386-6.3931 1.2148-3.7327-0.0438-4.4212-0.24-5.6838-1.6164l-1.0523-1.1465 1.1434-3.4938c0.62911-1.9207 1.2021-4.0042 1.2732-4.6322 0.07104-0.628 0.26717-1.2514 0.43603-1.3834 0.16886-0.13207 0.4269-0.94466 0.57361-1.8071 0.1467-0.86247 0.48043-1.8342 0.74027-2.1585 0.21924-0.2736 0.32347-0.50683 0.26937-0.57225-0.01002-0.0103-0.0254-0.016-0.04455-0.016-0.13659 0 0.01727-0.53242 0.343-1.1827 0.32571-0.65023 0.53898-1.6792 0.47479-2.285-0.0642-0.60577 0.01329-1.1003 0.17246-1.1003h4e-3c9.92e-4 -1.9e-4 5e-3 -2e-3 6e-3 -2e-3 0.29602-0.0906 1.2048-3.9676 1.5464-6.6201 0.09704-0.75361 0.30512-1.9872 0.46122-2.7408 0.15609-0.7536 0.311-1.7309 0.34494-2.1706 0.03393-0.4396 0.20592-0.79914 0.38177-0.79914 0.17586 0 0.33802-0.35955 0.36045-0.79916 0.02242-0.4396 0.08434-1.6732 0.13759-2.7408 0.05328-1.0676 0.26848-1.9396 0.47866-1.9396 0.21016-6e-5 0.27816-0.56279 0.15116-1.2509-0.12701-0.68813-0.04445-1.6138 0.18409-2.0561 0.29627-0.57336 0.25293-0.80605-0.15115-0.81119-0.4267-5e-3 -0.41411-0.10621 0.04842-0.40962 0.35982-0.23602 0.514-0.80127 0.37208-1.3634-0.13327-0.52786-0.07412-1.0669 0.13177-1.1987 0.46477-0.29751 0.18339-6.5033-0.43409-9.5818-0.25193-1.256-0.54457-2.8141-0.65113-3.4636-0.10656-0.64953-0.80225-2.4228-1.5464-3.9395s-1.3526-2.956-1.3526-3.1986c0-0.57726 2.3864-2.7763 4.7129-4.3431 1.0158-0.6841 2.4601-1.866 3.2111-2.6263 0.75096-0.76032 1.5524-1.3835 1.779-1.3835 0.22654 0 0.29568-0.30905 0.15503-0.68871-0.18189-0.4909-0.05229-0.61157 0.44572-0.41363 0.47524 0.18888 0.86664-0.10229 1.2209-0.90757 0.28711-0.65264 0.75732-1.1867 1.0445-1.1867s1.4962-1.0274 2.6859-2.283c1.1897-1.2556 2.3122-2.2826 2.4941-2.283s0.6921-0.36155 1.1356-0.80115c1.4653-1.4524 2.9871-2.7021 3.1491-2.6002l4e-3 4e-3h2e-3l2e-3 2e-3v2e-3c3e-3 5e-3 6e-3 0.0154 6e-3 0.0241v4e-3h2e-3v2e-3c2.4e-4 7.7e-4 -1.7e-4 3e-3 0 4e-3v2e-3l2e-3 2e-3v8e-3l2e-3 2e-3h2e-3l2e-3 2e-3 6e-3 2e-3h2e-3l2e-3 2e-3h4e-3c0.11527 0.0137 0.68189-0.45532 1.3546-1.1365 0.75528-0.76481 1.9599-1.6424 2.6762-1.9497 0.95007-0.40759 1.1447-0.66336 0.72089-0.9417-0.42856-0.28146-0.36038-0.38239 0.26161-0.38753 0.46376-4e-3 1.7229-0.54115 2.7964-1.1927 1.1204-0.68003 1.8994-0.97932 2.8119-1.026zm459.65 22.053v2e-3c-0.0126-5.9e-4 -0.0251 9.8e-4 -0.0388 2e-3 -0.13135 9e-3 -0.3167 0.0885-0.57361 0.23091-0.58045 0.32143-0.89385 0.32174-0.99801-2e-3 -0.21695-0.67411-2.9047 0.79882-3.4766 1.9055-0.64437 1.247-7.2275 10.372-8.6914 12.047-0.65863 0.75361-2.2521 2.7063-3.5425 4.3391-3.6382 4.6036-5.0856 6.4112-5.9745 7.4714-1.4787 1.7635-4.6219 6.4616-4.7691 7.1281-0.0793 0.35896-0.50211 1.0748-0.93988 1.5903-1.5144 1.7831-4.0242 6.6351-8.7612 16.939-0.46581 1.0132-0.88001 2.2964-0.92049 2.8532-0.0405 0.55682-0.19824 1.012-0.35076 1.012h-2e-3l-2e-3 2e-3c-0.16002 0.0393-0.63142 1.3078-1.0542 2.8532-0.42951 1.57-0.94009 3.3677-1.1356 3.9958-0.19551 0.628-0.47629 2.2728-0.624 3.6544s-0.40987 3.3343-0.5833 4.3391c-0.17345 1.0048-0.3102 5.2181-0.30425 9.3629 0.0109 7.0346 0.0901 7.7614 1.2015 10.907 0.65487 1.8534 1.3912 3.6185 1.6356 3.9234 0.24441 0.30495 0.31269 0.69008 0.1531 0.85537s-0.0249 0.29918 0.29843 0.29918 0.45383 0.14024 0.28875 0.31122c-0.16509 0.17099 0.18287 0.84044 0.77516 1.4859 0.59227 0.64543 1.1408 1.4723 1.2189 1.8392 0.32116 1.5092 3.223 4.5341 5.6063 5.845 1.6766 0.92214 5.7814 2.0439 6.6334 1.8131 0.42853-0.11607 1.5539-0.047 2.4999 0.15259 1.6314 0.34418 3.1308 0.27856 6.1296-0.26504 2.2221-0.40282 10.132-3.0889 10.288-3.4938 0.0809-0.20918 0.38883-0.37949 0.68407-0.37949 0.78248 0 2.9106-1.0832 2.9146-1.4838 2e-3 -0.1884 0.28369-0.34335 0.62594-0.34335 0.34224 0 1.1356-0.63266 1.7635-1.4055 0.55432-0.6823 1.0206-1.1321 1.122-1.0963l2e-3 2e-3h2e-3l4e-3 4e-3h2e-3l2e-3 2e-3v2e-3l2e-3 2e-3c3e-3 6e-3 6e-3 0.0176 6e-3 0.0281 0 7e-3 2e-3 0.0166 4e-3 0.0221v2e-3l2e-3 2e-3c1.5e-4 2.1e-4 3e-3 5e-3 4e-3 6e-3l4e-3 4e-3c2.1e-4 1.4e-4 5e-3 3e-3 6e-3 4e-3 0.112 0.0516 0.66223-0.36545 1.3158-1.014 0.73385-0.72819 1.2391-1.5786 1.124-1.8894-0.1228-0.33197 0.037-0.46786 0.38564-0.32929 0.32692 0.12992 0.74497-0.0161 0.92825-0.32327 0.10556-0.17691 0.14348-0.28665 0.11628-0.32529-0.0374-0.0398-0.16832 0.0134-0.39533 0.15863-0.0762 0.0487-0.1269 0.0653-0.1531 0.0542h-2e-3l-4e-3 -4e-3h-2e-3v-2e-3h-2e-3l-2e-3 -2e-3v-2e-3l-2e-3 -2e-3c-0.0406-0.0827 0.15048-0.43413 0.53292-0.93769 0.53794-0.70831 0.8706-1.469 0.73833-1.6907-0.13228-0.22168-0.0192-0.40359 0.25193-0.40359 0.2712 0 0.37081-0.2066 0.22092-0.45781-0.1499-0.2512-0.0611-0.45579 0.19573-0.45579 0.69333 0 0.55937-3.2291-0.19573-4.7286-0.36104-0.71695-0.54706-1.4877-0.41277-1.7127 0.1343-0.22505 0.04-0.40961-0.20929-0.40961-0.24928 0-0.34433-0.29335-0.21123-0.65257 0.35234-0.95099-0.9004-3.388-2.9553-5.7426-0.98652-1.1304-2.3094-2.7215-2.9398-3.5379-0.6304-0.81641-1.3004-1.4858-1.4883-1.4858s-0.81039-0.46285-1.3817-1.028c-0.57132-0.5652-1.9656-1.8236-3.0987-2.797-1.9425-1.6689-2.4782-3.0599-0.83523-2.1665 0.92975 0.50554 7.1392 0.48126 7.1392-0.0282 0-0.20558 0.21018-0.37347 0.46704-0.37347 0.25685 0 0.35734 0.18146 0.22479 0.40359-0.13255 0.22214 0.55025 0.38796 1.5174 0.36945 0.96712-0.0185 1.7596-0.16314 1.7596-0.32327 0-0.16007 0.62352-0.19813 1.3856-0.0823 0.88673 0.1348 1.2832 0.0416 1.1027-0.26102-0.17665-0.29605 0.32503-0.4555 1.341-0.42568 0.91005 0.0267 1.6991-0.19376 1.7984-0.50198 0.0973-0.30228 0.48483-0.55016 0.86043-0.55016 0.77923 0 3.6528-2.9847 3.6568-3.799 2e-3 -0.29612 0.2854-1.1014 0.63175-1.789 0.60745-1.206 0.5648-1.315-1.2151-3.0781-1.0148-1.0053-2.1049-1.8301-2.4224-1.8332-0.32794-3e-3 -0.43891-0.23453-0.25775-0.53812 0.2144-0.35929 0.0787-0.43906-0.41471-0.24296-0.40358 0.16041-0.73445 0.0978-0.73445-0.13854 0-0.2363-1.0425-0.73514-2.3158-1.1084-4.1395-1.2134-4.8941-1.3451-4.5696-0.80116 0.21974 0.36817-0.074 0.36943-1.0813 6e-3 -0.77846-0.28108-2.5642-0.38691-4.0928-0.24095-1.251 0.11945-1.9554 0.11778-2.0154 0.012v-2e-3c5e-5 -1e-3 7e-5 -3e-3 0-4e-3l2e-3 -2e-3v-4e-3c2.2e-4 -1e-3 2e-3 -5e-3 2e-3 -6e-3 0.0125-0.0343 0.0702-0.0792 0.18022-0.12851 0.35617-0.15949 0.532-0.27642 0.54454-0.34134 2.5e-4 -2e-3 1.8e-4 -8e-3 0-0.0103-1.8e-4 -1e-3 -2e-3 -5e-3 -2e-3 -6e-3 -3.8e-4 -9.7e-4 -3e-3 -5e-3 -4e-3 -6e-3 -0.0864-0.10065-0.86865 5e-3 -2.1918 0.32328-1.1678 0.28088-1.6652 0.24471-1.6898-0.1245-9e-3 -0.12952-0.0319-0.20942-0.064-0.23492-0.0408-0.0271-0.0978 0.0272-0.15503 0.16867-0.10562 0.26121-1.412 0.39078-3.0522 0.30319-2.0281-0.10833-2.8681 7e-3 -2.8681 0.39757 0 0.40685-0.15331 0.41941-0.58525 0.0482-0.43595-0.37472-0.9949-0.28755-2.1859 0.34136-0.80444 0.42481-1.4629 0.67387-1.5561 0.59433v-2e-3h-2e-3v-2e-3l-6e-3 -6e-3v-2e-3l-2e-3 -2e-3v-4e-3c4e-5 -1e-3 6e-5 -3e-3 0-4e-3 -6e-5 -2e-3 -2.9e-4 -7e-3 0-0.0103 0.0961-0.8222-0.22474-0.87162-1.8352-0.28312-0.94741 0.34626-1.7334 0.49174-1.777 0.33331-1e-4 -5.1e-4 -9.9e-4 -4e-3 -2e-3 -6e-3v-4e-3c-9.9e-4 -0.0249-7e-3 -0.0446-0.0175-0.0562-1e-3 -9.6e-4 -5e-3 -5e-3 -6e-3 -6e-3 -0.0729-0.0451-0.28561 0.12328-0.5271 0.43773-0.74584 0.97107-3.7556 1.8762-4.1335 1.2429-0.0724-0.1215-0.0899-0.21463-0.0698-0.255 9.8e-4 -1e-3 5e-3 -7e-3 6e-3 -8e-3 0.0353-0.0258 0.11694-4e-3 0.23642 0.0723 0.39755 0.25447 1.1041-1.4004 0.96894-2.271-0.0251-0.16144 0.15815-0.42303 0.40696-0.58229 0.65186-0.41727 2.705-5.1587 2.432-5.6161-0.12638-0.21176 0.0207-0.328 0.3275-0.25902 0.3068 0.069 0.63698-0.2867 0.73253-0.78911 0.0954-0.5024 0.42461-1.1194 0.73252-1.3714 0.30789-0.25205 0.98997-1.3307 1.5154-2.3974 0.52545-1.0668 1.1132-1.9396 1.3061-1.9396 0.19294 0 0.79771-0.82239 1.343-1.8272 0.54527-1.0048 1.176-1.8272 1.403-1.8272s0.41277-0.29829 0.41277-0.66261 0.27551-0.82717 0.61237-1.028c0.33686-0.2009 1.4693-1.4957 2.5154-2.8773 1.0461-1.3816 2.1598-2.7823 2.4747-3.1143 0.31483-0.33194 0.57636-0.74314 0.5833-0.9136 7e-3 -0.17046 0.8979-1.3382 1.9805-2.5942s1.9708-2.4572 1.9728-2.6685c2e-3 -0.21126 0.69677-1.2231 1.5445-2.2489 0.84772-1.0258 1.9536-2.7029 2.4553-3.7267 0.50171-1.0238 1.4074-2.7462 2.0135-3.8291 2.2925-4.0956 2.1057-10.572-0.28099-9.7544-0.54965 0.18821-0.56399 0.10682-0.0852-0.49393 0.34578-0.43399 0.40568-0.82573 0.14922-0.9899-0.2336-0.14953-0.52636-0.0144-0.6492 0.30117-0.13241 0.34018-0.23709 0.24245-0.25773-0.24094-0.0166-0.38671-0.0811-0.57154-0.26937-0.58028zm46.825 3.2086c-0.0653 3e-3 -0.10764 0.0135-0.12596 0.0321-3.8e-4 4.6e-4 -3e-3 3e-3 -4e-3 4e-3v2e-3l-2e-3 2e-3v2e-3h-2e-3v2e-3c-4e-4 2e-3 -2e-3 7e-3 -2e-3 0.0103-3e-3 0.0719 0.17373 0.21946 0.50966 0.47387 0.43505 0.32949 0.95979 0.4918 1.1666 0.35942 0.2068-0.13238 0.37594-0.0547 0.37594 0.17268 0 0.22739-0.80587 0.41363-1.7906 0.41363-1.0614 0-1.5597-0.14703-1.2248-0.36142 0.31069-0.1989 0.46899-0.46185 0.35076-0.58431l-4e-3 -4e-3h-2e-3l-2e-3 -2e-3c-0.14733-0.0888-0.95408 0.45602-1.8197 1.2369-1.2512 1.1287-1.7674 2.0801-2.308 4.2588-0.38298 1.5435-0.6957 2.932-0.6957 3.0842 0 0.55707 1.495 0.25555 2.2518-0.45379 0.98305-0.92143 1.5314-0.57735 1.8701 1.1766 0.14654 0.75883 0.48133 1.3794 0.74415 1.3794 0.57856 0 3.9733-2.7725 3.775-3.0761-8.9e-4 -1e-3 -5e-3 -5e-3 -6e-3 -6e-3 -0.10097-0.10458 0.19595-0.58474 0.66082-1.0662 0.9447-0.97846 1.1474-3.1557 0.29455-3.1665-0.39283-5e-3 -0.37399-0.12314 0.0659-0.41162 0.50787-0.33305 0.4427-0.63444-0.37014-1.7047-0.5434-0.7155-1.1689-1.3259-1.3895-1.3573-0.22058-0.0314-0.45097-0.10024-0.5116-0.15261-0.0606-0.0523-0.58537-0.14946-1.1666-0.21485-0.30427-0.0342-0.51513-0.054-0.63952-0.0482zm-246.76 28.569c-0.28678 3e-3 -0.44086 0.0165-0.46316 0.0703v4e-3c-0.01 0.0628 0.13213 0.17855 0.42634 0.37547 0.39745 0.26603 0.45121 0.44566 0.13564 0.44977-0.28885 4e-3 -0.62653-0.16538-0.75189-0.37547-0.38863-0.65127-4.256-0.31913-4.6974 0.40358-0.31214 0.51107-0.40782 0.52382-0.41278 0.0542-4e-3 -0.33498-0.25493-0.5147-0.55811-0.39957-0.30317 0.11513-0.49698 0.45543-0.43021 0.75697 0.0769 0.34762-0.18545 0.44846-0.71895 0.27308-0.58643-0.19278-1.3052 0.18788-2.37 1.259-0.84037 0.84528-1.8592 1.6698-2.2654 1.8312s-0.86354 0.65703-1.0154 1.1023c-0.1519 0.4453-0.67733 1.272-1.1686 1.8372-0.49202 0.56615-0.66123 1.0281-0.37594 1.0281 0.28481 0 0.51741 0.22791 0.51741 0.50599 0 0.27805-0.28805 0.39067-0.6395 0.25099-0.44868-0.17834-0.55601-0.0334-0.36433 0.4839 0.18057 0.48737 0.0996 0.62594-0.23835 0.40962-0.33378-0.21365-0.41963-0.0816-0.24805 0.38151 0.14444 0.38985 0.0689 0.70879-0.16666 0.70879-0.48027 0-2.0862 4.039-1.746 4.3913 0.11978 0.12406-0.25857 1.0886-0.84103 2.1424-0.58247 1.0539-1.3836 2.6863-1.7809 3.6283-0.66702 1.5815-0.86251 1.7128-2.5425 1.7128-2.7121 0-3.6529 0.89148-3.7188 3.5239-0.0684 2.7333-0.0605 2.7002-2.2499 10.407-0.63101 2.2212-4.6937 14.381-5.7982 17.354-0.55979 1.5072-1.0365 2.8441-1.06 2.9697-0.0235 0.1256-0.69843 1.6671-1.498 3.4255-0.79955 1.7584-1.4945 3.5045-1.5464 3.8813-0.1124 0.81572-0.79619 2.5613-2.2848 5.837-0.60242 1.3256-0.97524 2.6089-0.82942 2.8532 0.14581 0.24436 0.0497 0.44575-0.21318 0.44575-0.26285 0-0.66995 0.52228-0.90499 1.1626-0.56569 1.541-2.2885 5.4268-4.6684 10.525-1.0658 2.2835-1.9379 4.3121-1.9379 4.5098s-0.6806 1.8229-1.5116 3.6122c-2.161 4.6532-2.7778 6.342-2.6491 7.2506 0.0622 0.43925-0.0882 0.79916-0.33525 0.79916-0.24701 0-0.33533 0.30789-0.19572 0.68469s0.0496 0.68671-0.19962 0.68671c-0.24928 0-0.33012 0.20459-0.18022 0.45579 0.14989 0.25121 0.0611 0.4558-0.19572 0.4558-0.25685 0-0.46704 0.21787-0.46704 0.4839s0.24913 0.33421 0.55231 0.1506c0.0758-0.0459 0.12504-0.0616 0.14922-0.0522h2e-3l2e-3 2e-3h2e-3l6e-3 6e-3c1e-4 1.6e-4 1e-3 5e-3 2e-3 6e-3 9e-5 2.6e-4 9.9e-4 5e-3 2e-3 6e-3 0.0118 0.0766-0.14195 0.32113-0.43602 0.66863-0.53002 0.62631-0.84274 1.749-0.88174 3.1625-0.0566 2.0516 7e-3 2.182 0.99026 2.0702 0.88849-0.10105 0.96643-0.0135 0.50191 0.56623-0.30205 0.37699-0.77464 0.5698-1.0503 0.4297-0.028-0.0142-0.0487-0.019-0.06-0.0181h-4e-3l-2e-3 2e-3h-2e-3v2e-3h-2e-3v4e-3l-2e-3 2e-3v2e-3c6e-3 0.0961 0.51722 0.64606 1.2964 1.3814 1.7434 1.6453 4.1245 2.2901 3.6413 0.98589-0.19072-0.51476 0.0237-0.56599 1.0639-0.25701 0.79584 0.23635 1.2042 0.22101 1.0484-0.0402-0.14027-0.23505 0.12911-0.42768 0.59881-0.42768 0.46968 0 1.1011-0.30789 1.403-0.6847 0.30194-0.3768 0.41632-0.68671 0.2558-0.68671-0.16053 0-0.0356-0.28607 0.27712-0.6365 0.31274-0.35049 0.7082-0.54997 0.87785-0.44375 0.38295 0.23976 2.2853-2.3655 2.06-2.8211-0.0901-0.18222 0.25653-0.4935 0.77127-0.69072 0.83501-0.31992 2.9872-4.0215 2.8061-4.827-0.0393-0.1746 0.24234-0.50139 0.62788-0.72485 0.38553-0.22347 0.70151-0.71147 0.70151-1.0863 0-0.37483 0.39667-1.1233 0.88174-1.6626s0.88174-1.3286 0.88174-1.7529c0-0.42428 0.29895-1.0266 0.66275-1.3393 0.36381-0.31272 0.66083-0.84627 0.66083-1.1847 0-0.33841 0.38285-1.3198 0.85073-2.1826s0.73169-1.6916 0.58718-1.8413c-0.14449-0.14966-9e-3 -0.27307 0.30037-0.27307 0.32643 0 0.45107-0.29684 0.29844-0.7088-0.14448-0.38986-0.10508-0.60697 0.0872-0.4839 0.19227 0.12306 0.57015-0.38038 0.83911-1.1184 0.32443-0.89019 0.33639-1.3413 0.0368-1.3413-0.24833 0-0.0288-0.35954 0.48834-0.79914 0.83637-0.71103 1.357-1.9976 1.4709-3.6303 0.047-0.67465 1.655 0.10961 1.655 0.80718 0 0.38127 2.8188 2.3923 3.5289 2.5179 0.12127 0.0215 0.81496 0.31855 1.5426 0.6606 1.5382 0.72313 11.821 0.92146 13.23 0.25501 0.48507-0.2295 0.98138-0.4455 1.1026-0.47789 1.59-0.42493 3.892-1.4046 4.4261-1.8854 0.37268-0.33546 1.3653-0.93984 2.2053-1.3413 4.2904-2.0504 9.8502-6.7131 17.65-14.8 4.4977-4.6633 9.6102-10.981 8.9104-11.009-0.0293-1e-3 -0.049-7e-3 -0.06-0.0181l-6e-3 -6e-3c-9.9e-4 -3e-3 -9.9e-4 -8e-3 -2e-3 -0.0103v-2e-3c-4e-3 -0.0769 0.18687-0.25313 0.50966-0.44777 0.42954-0.25901 0.66586-0.66378 0.52517-0.89955-0.14068-0.23576-0.0456-0.42767 0.21123-0.42767 0.25685 0 0.46703-0.21417 0.46703-0.47588 0-0.2617 0.38955-0.90972 0.86624-1.4397 0.47669-0.52994 0.76281-1.1382 0.63562-1.3513-0.1272-0.21316-0.0204-0.38753 0.23643-0.38753 0.25685 0 0.46703-0.42448 0.46703-0.94171 0-0.51722 0.19736-0.81184 0.4399-0.65658 0.24254 0.15524 0.44184-0.10127 0.44184-0.56824 0-0.46699 0.21156-1.0686 0.47091-1.3373 0.25934-0.26861 0.52582-0.77157 0.59299-1.1184 0.0672-0.34684 0.3825-1.2463 0.69957-1.9999 0.58812-1.3978 0.77786-1.9952 1.0155-3.1845 0.0738-0.36953 0.25884-0.80035 0.41083-0.95777 0.15199-0.15744 0.16854-0.57824 0.0368-0.93369-0.13169-0.35545-0.0104-0.93186 0.26937-1.281 0.38637-0.48222 0.37916-0.67828-0.0291-0.81922-0.35026-0.12092-0.3994-0.41644-0.14147-0.84534 0.21769-0.36198 0.42221-1.1711 0.45347-1.7991 0.0312-0.628 0.21149-1.5141 0.40114-1.9698 0.18966-0.45562 0.13014-1.3162-0.13177-1.9115-0.2619-0.59537-0.3014-1.1474-0.0872-1.2268 0.62961-0.23342-0.57509-4.1849-1.5368-5.0399-0.49876-0.4434-0.64487-0.79093-0.33719-0.79915 0.79306-0.0221-0.75234-3.2106-1.5561-3.2106-0.37612 0-0.52434-0.27571-0.37207-0.68671 0.15736-0.42473-3e-3 -0.6847-0.42052-0.6847-0.3705 0-0.57917-0.15619-0.4651-0.34737 0.11409-0.19117-0.0724-0.744-0.41471-1.2288-0.3423-0.48487-0.624-0.71438-0.624-0.51 0 0.20436-0.30535 0.10734-0.68019-0.21486-0.37485-0.32221-0.60602-0.8085-0.51355-1.0823 0.0925-0.27376-0.49517-1.0835-1.3042-1.7991-0.80901-0.71558-1.4709-1.0638-1.4709-0.77306 0 0.2908-0.18856 0.4075-0.42051 0.25903-0.23199-0.14847-0.31026-0.56905-0.17442-0.93569 0.14656-0.39555-0.0866-0.79084-0.57167-0.96982-0.44961-0.16591-1.1388-0.58658-1.5329-0.93568-0.39408-0.34911-0.8904-0.60242-1.1027-0.56222-0.90625 0.17175-1.2191-0.0819-0.60656-0.49194 0.5621-0.37624 0.54163-0.44361-0.12983-0.44978-0.43458-4e-3 -1.2157-0.41721-1.7364-0.91962-0.52067-0.50241-1.2403-0.9136-1.5988-0.9136-0.35879 0-0.51913-0.13684-0.35851-0.30319 0.16061-0.16636-0.45196-0.67823-1.3604-1.1385-0.90845-0.46024-2.2969-1.2442-3.0851-1.7429-0.73283-0.46364-1.3423-0.73075-1.4244-0.63049v2e-3h-2e-3v4e-3l-4e-3 4e-3v4e-3c-9.9e-4 4e-3 -2e-3 0.0129-2e-3 0.0181 0 0.0238-6e-3 0.0402-0.0155 0.0502-2.5e-4 2e-4 -5e-3 1e-3 -6e-3 2e-3v4e-3c-0.069 0.0358-0.28319-0.14526-0.53099-0.46985-0.30317-0.39709-1.3456-0.97977-2.3158-1.2951-0.97015-0.31533-1.8721-0.74635-2.0057-0.95779-0.13357-0.21142-0.87806-0.45804-1.655-0.54615-0.77689-0.0881-1.5446-0.29533-1.7053-0.46181-0.16074-0.16647-0.60624-0.29927-0.99026-0.29516zm-296.59 6.7747c0.23041 0 0.49057 0.2219 0.57749 0.49195 0.08692 0.27004-0.17327 0.48992-0.57749 0.48992-0.40423 0-0.66441-0.21988-0.57749-0.48992 0.08692-0.27005 0.34708-0.49195 0.57749-0.49195zm221.13 4.4977c-0.88027 0.0364-1.5906 0.11174-1.967 0.23091-2.2778 0.72114-4.087 1.0295-9.0402 1.5441-4.4186 0.45904-7.6308 2.0822-10.936 5.5258-0.71242 0.74236-1.1836 1.3673-1.1414 1.4979l2e-3 2e-3v4e-3c1.6e-4 2.2e-4 3e-3 3e-3 4e-3 4e-3v2e-3l2e-3 2e-3h2e-3l4e-3 4e-3c6e-3 3e-3 0.0162 6e-3 0.0252 6e-3 0.0514 1e-3 0.0878 0.016 0.10465 0.0362 0.0401 0.0569-0.0429 0.17456-0.23254 0.30721-0.70169 0.49079-1.6453 4.7576-1.1259 5.09 0.23372 0.14961 0.43331 0.78434 0.44571 1.4116 0.0418 2.1082 0.20164 2.6987 0.7926 2.9336 0.32338 0.12853 0.58912 0.62682 0.58912 1.1064 0 0.47953 0.29701 1.1269 0.66082 1.4397 0.3638 0.31272 0.66082 0.81565 0.66082 1.1164 0 0.30073 0.44649 0.97954 0.9922 1.5079 0.54571 0.52842 2.1841 2.2231 3.6394 3.7668 1.4552 1.5437 3.5382 3.446 4.6296 4.2287 1.0914 0.78261 2.1298 1.6438 2.308 1.9115 0.17819 0.26781 0.32741 0.30661 0.33138 0.0883 4e-3 -0.21823 0.65159 0.1123 1.4398 0.73288 1.8356 1.4452 4.2971 2.7619 4.306 2.3031 8.6e-4 -0.0427 0.0124-0.0733 0.0271-0.0883 0.0548-0.0458 0.18543 0.0707 0.33525 0.31524 0.34992 0.57102 2.1152 1.3426 8.2302 3.5982 1.6978 0.62623 3.4837 1.3165 3.9688 1.534 0.48508 0.21753 1.346 0.52951 1.9127 0.69473l1.029 0.30119-1.0193 0.98388c-0.51722 0.49907-0.96804 0.82725-1.0581 0.77706l-2e-3 -2e-3h-2e-3l-8e-3 -8e-3c-9.9e-4 -2e-3 -3e-3 -9e-3 -4e-3 -0.012-0.0291-0.1256-0.3891 0.0621-0.80035 0.41563-0.66074 0.56797-2.8504 1.8359-5.8892 3.4114-0.54382 0.28195-0.99021 0.7641-0.99219 1.0702-2e-3 0.30612-0.25106 0.45767-0.55424 0.33733-0.30316-0.12035-1.0965 0.30493-1.7635 0.94572-0.59404 0.57071-1.092 0.95107-1.1938 0.92164h-4e-3l-2e-3 -2e-3h-2e-3l-4e-3 -4e-3v-2e-3l-4e-3 -4e-3v-2e-3l-2e-3 -2e-3v-6e-3l-2e-3 -2e-3v-4e-3c0-4e-3 -9.9e-4 -0.0108-2e-3 -0.0141-9e-5 -2.3e-4 -2e-3 -5e-3 -2e-3 -6e-3v-2e-3l-4e-3 -4e-3c-0.0817-0.0838-0.63203 0.14521-1.2906 0.54817-0.71442 0.43709-1.2001 0.95834-1.0794 1.1606 0.12068 0.20225-0.0887 0.24609-0.4651 0.0963-0.3764-0.1496-0.68408-0.068-0.68408 0.18071 0 0.24878-0.34683 0.57324-0.77128 0.72085-0.42444 0.14761-1.1201 0.48042-1.5445 0.73891-1.8136 1.1045-2.3516 1.4034-2.9766 1.6565-0.36381 0.14731-1.4542 0.63917-2.4243 1.0923-2.5414 1.187-7.7577 2.7448-9.1895 2.7448-0.86366 0-1.1285 0.16815-0.8953 0.57024 0.0969 0.16716 0.14096 0.26866 0.12789 0.3032v4e-3l-2e-3 2e-3h-2e-3v2e-3l-2e-3 2e-3h-2e-3l-2e-3 2e-3h-4e-3c-0.0495 0.0108-0.21073-0.10116-0.49222-0.33733-0.38877-0.3262-0.811-0.41677-0.93988-0.20079s-1.0384 0.35109-2.0212 0.29918c-0.9828-0.052-1.6788 0.0883-1.5445 0.31323 0.13425 0.22499 0.034 0.40962-0.22286 0.40962-0.25685 0-0.46703-0.16167-0.46703-0.35942 0-0.19774-0.3981-0.38965-0.88562-0.42769-0.4875-0.038-1.1968-0.39085-1.5755-0.78308-1.1336-1.1741-1.9398-0.86776-2.029 0.77103-0.16014 2.9434 0.16602 6.5211 0.6492 7.1241 0.27124 0.33851 0.55524 1.0576 0.63174 1.5983 0.0765 0.54071 0.40097 1.1885 0.7209 1.4397 0.31995 0.25119 0.49238 0.73587 0.38176 1.0762-0.14856 0.45711 0.0587 0.53365 0.79648 0.29116 0.85591-0.28136 0.96467-0.19358 0.75965 0.61843-0.17649 0.699 0.14546 1.2506 1.2286 2.1063 0.80749 0.63791 1.7916 1.1606 2.1859 1.1606 0.39425 0 0.60728 0.18154 0.47478 0.40359-0.317 0.53122 1.7342 1.3896 4.4261 1.8513 2.5664 0.44015 3.3785 0.40247 3.777-0.17067 0.17629-0.25356 0.57306-0.19067 0.97475 0.15461 0.45663 0.39251 1.149 0.46629 2.1278 0.22689 0.79818-0.19518 1.7006-0.30536 2.0038-0.24697 0.30317 0.0584 0.55174-0.0576 0.5523-0.25701 5.5e-4 -0.19941 0.61547-0.38557 1.3681-0.41363 0.75267-0.0281 1.5425-0.33598 1.7557-0.6847 0.21322-0.34871 0.39137-0.44821 0.39534-0.22087 4e-3 0.22733 0.40442 0.041 0.88949-0.41363 0.48508-0.45467 0.88174-0.65049 0.88174-0.43572 0 0.21478 0.238 0.14292 0.52904-0.15863 0.29105-0.30144 0.88507-0.54815 1.3216-0.54815s0.79453-0.20459 0.79453-0.4558c0-0.2512 0.39667-0.4578 0.88175-0.4578 0.48507 0 0.88174-0.1647 0.88174-0.36544s0.69765-0.62439 1.5503-0.94372c0.85265-0.31934 1.4358-0.77243 1.2964-1.006-0.13936-0.23353 0.26614-0.42568 0.90111-0.42568 0.64845 0 1.0369-0.19617 0.88562-0.44977-0.1545-0.25887 0.0223-0.33669 0.41471-0.18071 0.44974 0.17874 0.68407 0.0121 0.68407-0.48793 0-0.44195 0.20549-0.63005 0.49029-0.44775 0.26965 0.17265 0.61843 0.13425 0.77322-0.0864 0.15479-0.22059 1.0348-0.76281 1.9573-1.2047 0.92244-0.44193 1.5574-1.0081 1.4088-1.257s0.10058-0.45178 0.55423-0.45178c0.45366 0 1.2506-0.41118 1.7712-0.91359 0.52067-0.5024 1.1376-0.91361 1.372-0.91361 0.23437 0 1.6248-1.1819 3.089-2.6263 1.4642-1.4444 3.8539-3.7368 5.3098-5.0941s2.5435-2.6425 2.4166-2.8552c-0.12694-0.21272-0.052-0.38552 0.16859-0.38552 0.62154 0 3.251-4.6286 3.0057-5.2908-0.11987-0.32353-0.0295-0.65383 0.1996-0.73288 0.59574-0.20568 0.88932-4.7892 0.3934-6.1402-0.22951-0.62521-0.62112-1.0067-0.87012-0.84733-0.24899 0.15943-0.42424 0.12076-0.38952-0.0864 0.151-0.90029-0.0739-1.5509-0.45152-1.3092-0.2252 0.14416-0.47237-0.20411-0.55036-0.77304-0.078-0.56892-0.39059-1.061-0.69377-1.0923-0.30316-0.0315-0.74177-0.0831-0.9767-0.11446-0.23492-0.0313-0.31677-0.35831-0.18022-0.72686 0.17263-0.46596-0.40202-0.98772-1.8875-1.7127-1.1749-0.57346-2.3676-1.2684-2.651-1.5441-0.28346-0.27564-1.4754-0.76978-2.6472-1.0983-1.1718-0.32854-2.329-0.74204-2.5716-0.91962-0.24253-0.17759-1.0359-0.46721-1.7635-0.64253-1.7734-0.42733-11.313-4.8709-12.048-5.6121-0.3205-0.32337-0.77987-0.58832-1.0213-0.58832-0.83633 0-4.4174-3.0768-9.4976-8.1602-0.34294-0.34316-0.54902-0.85765-0.45734-1.1425 0.17617-0.54741 0.35471-0.59297 2.6297-0.69475 1.1048-0.0494 1.2812-0.16781 0.77128-0.51403-0.1528-0.10373-0.22915-0.17906-0.22479-0.22488 5e-5 -2.6e-4 7e-5 -5e-3 0-6e-3h4e-3v-2e-3l-2e-3 -2e-3v-2e-3h4e-3l2e-3 -2e-3c0.0521-0.0717 0.39929-0.0432 1.06 0.0883 0.99517 0.19814 1.4054 0.13904 1.217-0.1767-0.15637-0.26205-0.0389-0.467 0.26163-0.45579 1.7371 0.0648 2.9804-0.19691 3.5018-0.73691 0.32555-0.33718 0.95253-0.55897 1.3934-0.49194 0.7508 0.11413 3.3521-0.66292 5.3524-1.5983 0.48507-0.22683 1.8744-0.87134 3.0871-1.4336 3.1352-1.4538 4.6296-3.0095 4.6296-4.819 0-1.8213-1.9219-3.9725-4.2692-4.7748-1.2824-0.43833-5.4538-0.67538-8.0946-0.56622zm134.75 2.7328c-0.38109 0.015-0.6336 0.0571-0.67632 0.11846v2e-3l-2e-3 2e-3c-1.8e-4 5.2e-4 -2e-3 4e-3 -2e-3 6e-3v6e-3c0 1e-3 -5e-5 4e-3 0 6e-3v2e-3c-0.0367 0.13973-0.83238 0.24427-1.7984 0.23091-0.98915-0.0137-1.8964 0.13787-2.0154 0.33733-0.11902 0.19945-0.38361 0.25604-0.58911 0.1245-0.55322-0.35414-4.8583 0.68659-4.8583 1.1746 0 0.23038-0.39484 0.41966-0.87786 0.41966s-1.1253 0.41118-1.4282 0.91359c-0.30293 0.5024-0.89715 0.9136-1.3197 0.9136-0.75387 0-2.2185 1.1736-4.8215 3.8652-1.1831 1.2233-1.2321 1.3856-0.50967 1.6806 0.31586 0.12901 0.48786 0.20991 0.50773 0.26103v2e-3l2e-3 2e-3c7e-5 8.6e-4 3e-5 5e-3 0 6e-3v2e-3l-2e-3 2e-3v2e-3l-2e-3 4e-3v6e-3l-2e-3 2e-3c-0.0413 0.0431-0.25562 0.061-0.64725 0.0743-0.62731 0.0214-1.1866 0.56582-1.6743 1.6304-0.40283 0.87921-0.94245 1.5983-1.1996 1.5983-0.25714 0-0.34985 0.31895-0.20542 0.7088 0.1506 0.40644 0.0775 0.5897-0.17247 0.42968-0.23976-0.15346-0.43602 0.13211-0.43602 0.63451s-0.19052 1.0362-0.42246 1.1847c-0.23195 0.14847-0.3091 0.57095-0.17248 0.9397 0.13663 0.36876 8e-3 0.67064-0.2868 0.67064-0.29443 0-0.42623 0.29401-0.29263 0.65458 0.13359 0.36058 0.0438 0.7252-0.1996 0.80919-0.24335 0.084-0.45144 1.0732-0.46315 2.1987-0.0117 1.1254-0.20859 2.287-0.43797 2.5802-0.22937 0.29316-0.45622 1.2686-0.50384 2.1685-0.0465 0.87887-0.18246 1.601-0.30425 1.6344l-2e-3 2e-3h-6e-3c-9.6e-4 0-3e-3 -8e-5 -4e-3 0-0.12232 0.0206-0.25444 0.6802-0.29262 1.4838-0.0388 0.81641-0.17382 2.9773-0.30038 4.8009-0.12655 1.8236-0.0304 4.5987 0.21318 6.1663 0.5766 3.712 2.8652 10.455 3.7963 11.184 0.40094 0.31401 0.57498 0.57226 0.38757 0.57226-9e-3 0-0.0201 3e-3 -0.0271 6e-3h-4e-3v2e-3c-0.24487 0.20004 1.4114 3.0699 2.5057 4.303 0.43216 0.48698 0.78485 1.0511 0.78485 1.2549 0 0.20383 0.33022 0.37147 0.73445 0.37147 0.40425 0 0.60523 0.13396 0.44572 0.29918-0.25619 0.26534 0.82128 1.4263 3.932 4.2367 1.8499 1.6713 5.9068 3.5846 8.1178 3.8271 3.4704 0.38054 5.8387 0.27964 8.9007-0.37749 3.6351-0.78011 5.9149-1.8892 11.1-5.3993 1.9744-1.3366 3.9377-2.5622 4.3622-2.7227 0.42443-0.16056 0.77128-0.5152 0.77128-0.78911 0-0.27394 0.1993-0.37211 0.44184-0.21686 0.24254 0.15526 0.4399-0.038 0.4399-0.42968 0-0.40756-0.37692-0.71281-0.88174-0.71281-0.48508 0-0.88174 0.2066-0.88174 0.4578 0 0.25119-0.14754 0.42644-0.32944 0.38953-0.1819-0.0369-1.1712 0.0913-2.1976 0.28513-1.2032 0.22729-1.7613 0.53611-1.5697 0.86742 0.0792 0.13701 0.11704 0.22689 0.11045 0.26504l-2e-3 2e-3v4e-3l-2e-3 2e-3v2e-3h-2e-3v2e-3l-2e-3 2e-3h-2e-3l-2e-3 2e-3h-2e-3c-0.0459 0.0154-0.1881-0.0717-0.43409-0.26304-0.34972-0.27204-1.4309-0.45588-2.401-0.40962-4.4605 0.21256-13.334-2.7795-15.393-5.1904-0.46204-0.54106-1.016-0.98387-1.2325-0.98387s-0.85056-0.51055-1.4088-1.1345c-0.55829-0.62392-1.1445-1.0007-1.3023-0.83729-0.15775 0.16338-0.28681-0.0256-0.28681-0.41965 0-0.5967 1.3881-1.4241 2.7615-1.6465 0.61415-0.0995 2.8792-1.4147 3.4804-2.02 0.32616-0.32835 1.486-1.1402 2.5774-1.8051 3.4596-2.1076 7.6716-5.896 13.749-12.369 2.5864-2.7546 3.7397-4.3047 3.5618-4.7848-0.15422-0.41573-0.0791-0.59289 0.18216-0.42569 0.45819 0.2933 2.3507-2.0068 2.3507-2.8572 0-0.26137 0.19931-0.47587 0.44184-0.47587 0.24254 0 0.4399-0.47238 0.4399-1.0501 0-0.57777 0.238-1.2968 0.52904-1.5983s0.36613-0.54817 0.16666-0.54817-0.11316-0.31209 0.19185-0.69273c0.63799-0.79624 1.1406-7.9854 0.55811-7.9854-0.21264 0-0.66248 0.25824-0.99801 0.57225-0.0871 0.0815-0.14908 0.11982-0.18216 0.12047h-0.01l-4e-3 -4e-3h-6e-3l-2e-3 -2e-3v-2e-3l-4e-3 -4e-3c-0.0341-0.0689 0.097-0.37728 0.38175-0.85136 0.43347-0.72174 0.54949-1.1578 0.25581-0.96982-0.38271 0.24498-0.45156 0.0672-0.23836-0.62848 0.17647-0.57589 0.10679-0.96982-0.17248-0.96982-0.25888 0-0.4709-0.26295-0.4709-0.58429 0-0.32135-0.3864-0.87442-0.85848-1.2268-0.47208-0.35241-0.77224-0.78481-0.66663-0.96179s-0.10202-0.57507-0.46316-0.88549c-0.53722-0.46179-0.65695-0.42553-0.65695 0.2028 0 0.42832-0.20818 0.63401-0.4709 0.46583-0.25913-0.16583-0.36963-0.577-0.24418-0.9156 0.14676-0.39611 3.2e-4 -0.52684-0.41084-0.36344-0.35144 0.13969-0.63755 0.0327-0.63755-0.23894 0-0.64761-2.5484-2.004-3.1006-1.6505-0.23542 0.15069-0.42829 0.0843-0.42829-0.14658 0-0.4319-3.2234-0.96231-7.4957-1.2349-1.334-0.0851-3.4687-0.23261-4.742-0.32729-0.63667-0.0473-1.214-0.0608-1.6336-0.0442zm57.22 2.5018c-0.63534 0.0363-1.7927 0.21934-3.8816 0.57426-0.45476 0.0773-0.83055 0.1781-0.87593 0.23091l-4e-3 4e-3v2e-3h-2e-3v6e-3l-2e-3 2e-3v2e-3h-2e-3c-0.0633 0.0538-0.59049 0.16453-1.2248 0.25099-1.2856 0.17523-7.0411 3.2953-7.2962 3.9556-0.0809 0.20929-0.40461 0.38151-0.71896 0.38151s-1.3716 0.80499-2.3507 1.789c-0.97902 0.98404-1.897 1.6687-2.0387 1.522-0.14164-0.14671-0.25774 0.10971-0.25774 0.57025s-0.13568 0.69662-0.3023 0.52406c-0.35425-0.3669-3.6665 2.8582-3.6665 3.5701 0 0.2654-0.41318 0.74935-0.91856 1.0762-0.54066 0.34971-0.81511 0.87427-0.66662 1.275 0.13879 0.37464 0.10544 0.59016-0.0736 0.47788-0.41981-0.26315-1.4579 0.88699-1.1182 1.2389 0.1414 0.14646-0.0685 0.39579-0.46703 0.55418-0.39852 0.15839-0.72477 0.67703-0.72477 1.1526s-0.17528 0.8634-0.38952 0.8634c-0.21426 0-0.49626 0.36155-0.62788 0.80116-0.13161 0.4396-0.73316 2.2527-1.3352 4.0299-0.60203 1.7772-1.1496 4.0377-1.217 5.0238-0.0674 0.98604-0.30457 2.0465-0.52905 2.3573-0.22446 0.31073-0.28475 1.0815-0.13177 1.7127 0.15295 0.63126 0.12654 1.1486-0.0601 1.1485-0.59416-1.5e-4 -0.3052 7.3624 0.30425 7.7525 0.33409 0.21386 0.38206 0.46409 0.12209 0.6305-0.65504 0.41931 0.52209 5.7747 1.2693 5.7747 0.21421 0 0.34161 0.18931 0.28099 0.41966-0.18157 0.68984 2.0288 4.1374 2.8196 4.3973 0.40362 0.13268 0.68521 0.59387 0.62399 1.024-0.0612 0.43018 0.40313 1.3562 1.0329 2.0581 1.444 1.6094 5.6183 4.1301 6.2109 3.7508 0.24547-0.15713 0.44571-0.0459 0.44571 0.24698 0 0.29289 0.29895 0.41566 0.66276 0.27106 0.36381-0.14459 0.66082-0.0534 0.66082 0.20481 0 0.25811 0.1993 0.34399 0.44184 0.18874s0.4399-0.0802 0.4399 0.16666c0 0.24687 1.0425 0.62271 2.3158 0.8373 3.8758 0.65317 14-0.19332 14.001-1.1706 1.8e-4 -0.16044 0.50619-0.32039 1.124-0.3574 0.61779-0.037 1.9574-0.65477 2.9766-1.3714 2.2467-1.5798 6.4822-6.0784 6.4822-6.8851 0-0.32023 0.15664-0.58229 0.34689-0.58229 0.19024 0 0.67514-0.56615 1.0775-1.257 0.40231-0.6908 1.2508-1.8257 1.8856-2.5219 0.78545-0.86141 1.065-1.5517 0.87786-2.1625-0.25542-0.83351-0.38161-0.85334-1.7596-0.25701-0.81621 0.35322-2.6383 0.77191-4.0502 0.92967-1.4119 0.15774-4.2911 0.49824-6.3989 0.75698-7.5157 0.92261-12.112 0.61232-15.916-1.0742-1.8198-0.80678-2.2609-1.275-3.2053-3.4134-0.60211-1.3634-1.1475-2.8255-1.2112-3.2488-0.0637-0.42326-0.22381-0.97564-0.35657-1.2268-0.57084-1.0801-0.0145-8.3317 0.92825-12.104 0.28253-1.1304 0.61747-2.6168 0.74608-3.305 0.12862-0.68824 0.41057-1.1398 0.62594-1.002 0.21537 0.13786 0.39146-0.0669 0.39146-0.45579 0-1.7459 9.258-9.451 14.104-11.738 2.4931-1.1768 2.9936-1.2762 3.9048-0.77104 0.94935 0.52623 1.1637 0.44289 2.3235-0.90155 2.454-2.8446 1.5215-6.0572-2.2286-7.6843-0.83606-0.36271-1.7789-0.55728-2.0949-0.43169s-0.57362 1e-3 -0.57362-0.27509c0-0.23549-0.11461-0.34555-0.74996-0.30922zm223.21 0.53611c-0.12348 7e-3 -0.20541 0.10562-0.20541 0.2771 0 0.26603 0.19736 0.4839 0.4399 0.4839s0.44183-0.0901 0.44183-0.20078c0-0.11078-0.19929-0.32866-0.44183-0.48392-0.0758-0.0485-0.14683-0.0736-0.2093-0.0763-9e-3 -3.6e-4 -0.017-4.5e-4 -0.0252 0zm-343.35 0.44777c1.4254 0.0375 3.8989 0.93935 7.2671 2.6565 1.4167 0.72226 2.7562 1.1972 2.9766 1.0562s0.40114 0.0986 0.40114 0.53209c0 0.43348 0.12035 0.66435 0.26743 0.51201 0.1471-0.15234 0.68624 0.12702 1.1976 0.62045 0.51138 0.49345 1.1844 0.79452 1.496 0.67064 0.31169-0.12388 0.56776 0.0252 0.56975 0.33131 2e-3 0.49281 0.67584 1.0328 3.6006 2.8773 0.68852 0.43424 1.3565 1.2388 4.1141 4.9656 0.65931 0.89099 0.74178 1.3526 0.78097 4.3612 0.0751 5.7711-3.0417 13.163-8.3775 19.868-2.3948 3.0096-9.207 9.9222-10.802 10.961-0.38558 0.25121-1.9586 1.3847-3.4979 2.5199-1.5392 1.1353-4.0899 2.669-5.6664 3.4074-3.9128 1.8329-8.3082 2.0894-10.691 0.62245-0.90803-0.55896-1.7639-1.3894-1.903-1.8433-0.13908-0.4539-0.40036-0.82525-0.58137-0.82525-0.18086 0-0.2671-1.7977-0.1899-3.9958 0.10511-2.9938 0.51329-5.2001 1.6278-8.7926 0.81828-2.6376 1.6997-5.6173 1.9573-6.6221 0.25757-1.0048 0.77156-2.8758 1.1434-4.1584 0.37179-1.2826 0.7057-3.0306 0.74222-3.8833 0.0366-0.85265 0.26498-2.2419 0.50579-3.0882 0.3376-1.1864 0.3-1.6287-0.16473-1.9336-0.33991-0.22303-0.38903-0.39948-0.11239-0.40359 0.26978-4e-3 0.62045-1.188 0.78097-2.6324 0.26557-2.3898 1.5484-6.6164 2.5289-8.3348 0.21501-0.3768 0.87058-1.7137 1.4573-2.9697 0.84297-1.8046 1.677-2.6963 3.9727-4.2548 1.5978-1.0847 3.421-2.0701 4.0521-2.1886 0.16039-0.0301 0.34286-0.0415 0.54649-0.0362zm285.82 2.8171-4e-3 4e-3c-4.9966 0.20914-5.4572 0.2973-6.4842 1.2248-0.43608 0.39383-1.068 0.61334-1.405 0.48793-0.37173-0.13835-0.49305-0.0267-0.30813 0.28311 0.19043 0.31912 0.0604 0.4141-0.34494 0.25299-0.77664-0.30867-3.0206 1.1063-2.6743 1.6866 0.1335 0.22373-0.12038 0.40761-0.56586 0.40761-0.82248 0-2.6193 1.7709-2.432 2.3974 0.0563 0.1884-0.10748 0.34336-0.36433 0.34336-0.25687 0-0.34158 0.21041-0.18797 0.46783 0.15359 0.25743 0.11458 0.43958-0.0852 0.4036-1.1138-0.2004-1.9548 0.72512-2.3196 2.5541-0.0501 0.2512-0.39832 0.8096-0.77516 1.2409-0.37684 0.43128-0.686 1.2999-0.686 1.9316 0 0.67139-0.18811 1.0292-0.45348 0.85938-0.26753-0.17125-0.32035-0.0655-0.12789 0.25702 0.17963 0.30101 0.0709 0.86612-0.24224 1.257-0.77532 0.96759-1.0761 11.408-0.35463 12.308 0.28366 0.35365 0.41199 0.64253 0.28681 0.64253-0.47371 0 0.6616 3.9676 1.9088 6.6743 0.95084 2.0635 1.5934 2.8943 2.401 3.1042 0.60652 0.15767 1.1027 0.5306 1.1027 0.82726 0 0.41033-0.12696 0.40883-0.52905-8e-3 -0.99164-1.0271-1.3929-0.55335-0.43021 0.508 0.52736 0.58139 0.95926 1.2134 0.95926 1.4035 0 0.48919 1.3168 1.7968 1.3507 1.3413 2e-3 -0.0242 7e-3 -0.045 0.0136-0.0562l6e-3 -6e-3h2e-3l2e-3 -2e-3h2e-3v-2e-3h0.01l2e-3 2e-3c0.0704 0.0186 0.22445 0.29232 0.39145 0.72284 0.22065 0.56887 0.90258 1.2305 1.5154 1.4718 0.61287 0.24134 1.1143 0.56014 1.1143 0.70679 0 0.14663-0.24719 0.11233-0.55036-0.0763-0.12289-0.0765-0.20496-0.11097-0.2403-0.1024h-2e-3l-4e-3 4e-3h-2e-3l-4e-3 4e-3v2e-3l-2e-3 2e-3h-2e-3v2e-3c-0.0184 0.0547 0.0866 0.23294 0.31781 0.52808 0.33773 0.4311 0.71739 0.67824 0.84298 0.54816 0.12558-0.13007 0.50728 0.17566 0.8488 0.68068 0.34152 0.50501 0.80694 0.80122 1.0329 0.65659 0.22595-0.14463 0.41083 0.05 0.41083 0.43371 0 0.46313 0.24545 0.59918 0.73254 0.4056 0.45704-0.18165 0.625-0.10973 0.4457 0.19075-0.29036 0.48659 1.2122 1.2042 2.246 1.0722 0.30701-0.0392 0.5044 0.1693 0.4399 0.46382-0.0645 0.29453 0.15917 0.64023 0.4961 0.76702 0.4192 0.15775 0.49929 0.0391 0.25192-0.37547-0.0373-0.0625-0.0518-0.10806-0.0446-0.13453l2e-3 -2e-3v-4e-3l2e-3 -2e-3c1.4e-4 -2.1e-4 3e-3 -3e-3 4e-3 -4e-3v-2e-3l4e-3 -4e-3c0.084-0.0596 0.49504 0.1536 1.0736 0.58028 0.69908 0.51558 1.2823 0.84673 1.3856 0.79313 2.1e-4 -1.3e-4 5e-3 -3e-3 6e-3 -4e-3l6e-3 -6e-3v-2e-3l4e-3 -4e-3v-4e-3c1e-4 -3e-3 0-9e-3 0-0.012v-4e-3h2e-3v-4e-3l2e-3 -2e-3v-4e-3h2e-3v-2e-3l2e-3 -2e-3v-2e-3c0.0602-0.10565 0.63188 0.0874 1.3197 0.4558 0.67077 0.35924 1.2288 0.56103 1.312 0.47988v-2e-3l8e-3 -8e-3v-2e-3l2e-3 -2e-3v-2e-3c1.3e-4 -5.2e-4 9.9e-4 -4e-3 2e-3 -6e-3v-6e-3c0-0.1409 0.38651-0.0398 0.86043 0.22288 0.4739 0.26269 2.509 0.59758 4.5211 0.74493s3.6917 0.29868 3.7324 0.33733c0.24402 0.23199 8.128-0.61794 9.4065-1.014 0.84888-0.26296 2.6128-0.78905 3.9184-1.1706 2.8337-0.82814 7.5481-3.0748 7.5481-3.5962 0-0.20362 0.17446-0.25612 0.38952-0.11846 0.21505 0.13765 0.63627-0.0556 0.936-0.4297 0.29971-0.37403 0.8298-0.68068 1.1782-0.68068s0.52086-0.19055 0.38176-0.42367c-0.1391-0.23311 0.15434-0.5589 0.65308-0.72284 0.69197-0.22749 0.83548-0.53166 0.60461-1.2851-0.1332-0.43467-0.18742-0.66258-0.12983-0.71483 2e-3 -1e-3 8e-3 -5e-3 0.01-6e-3 0.0673-0.0285 0.23621 0.094 0.53097 0.34737 0.61789 0.53112 0.78231 0.46129 1.2131-0.51803 0.40315-0.91643 0.35135-1.363-0.2713-2.3472-0.73645-1.1641-0.73396-1.2455 0.064-1.9176 0.27213-0.22946 0.42005-0.38346 0.42633-0.4337v-0.01h-2e-3v-2e-3h-2e-3v-2e-3h-2e-3l-2e-3 -2e-3h-2e-3c-0.0232-5e-3 -0.0844 0.0161-0.18217 0.0683-0.44151 0.23566-0.52461 0.0822-0.31974-0.58631 0.32079-1.0468-0.74636-2.2078-1.5542-1.6907-0.37862 0.24237-0.2903 0.52399 0.312 0.99995 0.35121 0.27753 0.54312 0.43586 0.55617 0.49797 1.2e-4 1e-3 -1e-5 5e-3 0 6e-3 -6e-5 4.7e-4 -4e-5 3e-3 0 4e-3v2e-3l-2e-3 2e-3v2e-3l-8e-3 8e-3c-0.0594 0.0276-0.3236-0.0441-0.81004-0.19075-1.5334-0.46225-1.5965-0.59537-0.62981-1.3373 0.83714-0.64248 0.83596-0.66285-0.0329-1.3513-0.48507-0.38435-1.2784-0.72171-1.7635-0.74895-0.48507-0.0272-1.2756-0.12423-1.7557-0.21686-0.99099-0.19115-5.0792 1.0839-5.0792 1.5842 0 0.18042-0.24912 0.34623-0.5523 0.36946-0.30316 0.0232-1.6426 0.38192-2.9766 0.79514-5.4495 1.688-9.1668 2.3744-11.937 2.2047-3.761-0.23038-9.7428-1.5429-10.48-2.2991-0.32417-0.33243-1.2211-1.1041-1.9941-1.7148-1.3967-1.1033-4.4118-4.9377-4.2944-5.4615 0.0338-0.15064-0.28392-0.93914-0.70539-1.7529-1.0443-2.0164-1.1769-6.4464-0.26937-9.0175 0.87968-2.4922 2.9726-4.5235 4.7672-4.6302 4.8945-0.29126 7.6807 0.44347 9.7282 2.5641l1.0775 1.1144-0.92631 2.5621c-0.50532 1.3988-0.82154 2.6482-0.70733 2.791l2e-3 2e-3c0.12195 0.12632 1.1406-0.093 2.2635-0.48792 1.1229-0.39486 2.5427-0.71682 3.1549-0.71682 0.71497 0 1.0039-0.18461 0.80616-0.51604-0.18826-0.31544-0.0703-0.42798 0.30425-0.28914 0.77696 0.28801 3.0386-1.0361 3.0386-1.779 0-0.30782 0.22772-0.70625 0.50773-0.88549 0.1528-0.0978 0.25043-0.12998 0.28681-0.10044 0.0335 0.0348 6e-3 0.13784-0.0911 0.30119-0.17302 0.29002-0.19389 0.52808-0.0465 0.52808 0.59317 0 1.9696-4.0009 1.9786-5.7507 0.0119-2.2871-2.2986-7.3217-3.5483-7.7325-0.47581-0.15641-0.77263-0.4371-0.66083-0.62446 0.11181-0.18735-0.20746-0.63616-0.70926-0.99592s-1.141-0.87919-1.4205-1.1546c-0.90786-0.89456-3.7375-2.1014-4.213-1.7971-0.25473 0.16305-0.46316-0.0412-0.46316-0.45378 0-0.41257-0.24718-0.65973-0.55036-0.55017s-1.4453-0.0694-2.5367-0.39556c-1.2428-0.37147-3.5483-0.52746-6.1722-0.41764zm-484.87 5.1985c-5.1338-0.10736-7.1536 0.0362-10.796 0.76903-0.60634 0.12199-1.599 0.31859-2.2053 0.43571-3.0018 0.57987-4.0272 0.84122-7.4958 1.9055-2.0616 0.63257-4.0468 1.4026-4.4106 1.7127-0.3638 0.31015-2.0501 1.45-3.7479 2.532-1.6978 1.0819-3.7577 2.7104-4.5773 3.6183-1.9869 2.2007-4.463 6.0338-4.463 6.9092 0 0.38706-0.30642 1.156-0.68021 1.7087-1.1342 1.6771-1.9376 4.9788-1.3604 5.588 0.37126 0.39187 0.32875 0.48901-0.16473 0.37949-0.43102-0.0956-0.69675 0.24989-0.76352 0.99392-0.0564 0.62801-0.26461 2.0682-0.46316 3.1986-0.65504 3.7295-0.24907 12.02 0.71702 14.652 0.22296 0.60737 0.44355 1.311 0.49029 1.5622 0.0467 0.25121 0.46409 1.0915 0.92825 1.8694 0.46412 0.77787 0.71465 1.5486 0.55617 1.7127s-0.0454 0.29918 0.25192 0.29918c0.29731 0 0.42635 0.19184 0.28681 0.42568-0.13953 0.23385-0.0204 0.57321 0.26356 0.75498 0.15586 0.0998 0.25862 0.12919 0.29649 0.10034l4e-3 -4e-3c0.0249-0.0396-7e-3 -0.13878-0.0988-0.29316-0.17306-0.29002-0.10569-0.52607 0.15116-0.52607s0.49287 0.3079 0.52323 0.6847c0.11272 1.401 0.1816 1.5873 0.90112 2.4577 0.4045 0.48932 0.61849 1.0097 0.47672 1.1566-0.14177 0.14682 0.10572 0.26705 0.55036 0.26705 0.44465 0 0.67577 0.13719 0.51354 0.3052-0.39952 0.4138 1.0137 1.9798 1.7867 1.9798 0.3557 0 0.48502 0.22312 0.30425 0.52606-0.0957 0.16026-0.12496 0.26387-0.093 0.30119 2e-3 2e-3 7e-3 4e-3 0.01 6e-3 0.0384 0.0185 0.12087-5e-3 0.23836-0.0803 0.80097-0.51272 1.8162 0.18028 1.6414 1.1204-0.091 0.48925 0.024 0.76959 0.25386 0.62245 0.22986-0.14713 0.41665-0.0624 0.41665 0.18674 0 0.2491 0.43218 0.59375 0.95924 0.76702 0.52707 0.17325 1.3253 0.67035 1.7751 1.1044 0.79732 0.76935 4.7572 2.1456 6.9667 2.4215 2.9685 0.37066 7.1938 0.22059 10.511-0.37347 4.0094-0.71801 7.7819-2.5809 11.722-5.7868 4.0581-3.3017 13.046-11.98 13.046-12.598 0-0.33288 0.1826-0.48698 0.40696-0.34336 0.40276 0.25782 3.551-2.8543 3.558-3.5178 8e-3 -0.69666-1.3291-0.31527-1.8352 0.52406-0.29877 0.49551-0.80415 0.75707-1.1782 0.6084-0.42476-0.16883-0.54393-0.0733-0.3372 0.27308 0.21677 0.36326-0.11093 0.53611-1.0232 0.53611-0.73805 0-2.5714 0.61578-4.0734 1.3694-1.5021 0.7536-3.0594 1.3694-3.4611 1.3694s-0.86805 0.14453-1.0368 0.31926c-0.16871 0.17475-0.61453 0.3626-0.99026 0.41965-0.37573 0.0572-1.015 0.25153-1.4205 0.4297-0.4055 0.17816-1.1331 0.38368-1.6181 0.4578-0.48508 0.0741-2.6677 0.57656-4.8505 1.1164-2.1828 0.53984-4.9137 1.0918-6.0675 1.2268-2.7661 0.32371-8.8623-0.61467-11.352-1.7469-1.0488-0.47692-1.9532-0.81139-2.0677-0.76902h-2e-3l-4e-3 4e-3h-2e-3v2e-3h-2e-3v2e-3h-2e-3v2e-3h-6e-3v2e-3h-4e-3c-0.11273-0.0229-0.7706-0.85298-1.5174-1.9216-0.78997-1.1304-1.6411-2.2069-1.8914-2.3914-0.29116-0.21468-0.29566-0.34012-0.0136-0.34937 0.28818-9e-3 0.28522-0.13038-8e-3 -0.34938-0.47597-0.35627-1.2473-3.0316-2.2596-7.8369-0.33987-1.6134-0.83547-3.2065-1.1027-3.54-0.34361-0.42876-0.34844-0.77556-0.0175-1.1887 0.25745-0.32129 0.52922-1.7603 0.60463-3.1966 0.0724-1.3801 0.24039-2.5206 0.37982-2.6083l2e-3 -2e-3h2e-3c9.9e-4 -1.6e-4 5e-3 -2e-3 6e-3 -2e-3h0.012c9.9e-4 -3.4e-4 3e-3 -1e-3 4e-3 -2e-3 0.15507-0.053 0.63806-1.1838 1.0891-2.5581 0.77032-2.3472 1.8097-3.6506 4.868-6.104 1.066-0.85519 4.8954-2.6839 6.1354-2.9295 0.72038-0.14271 2.5-0.56311 3.9552-0.93369 1.4552-0.37057 3.2412-0.80918 3.9688-0.97585 0.72761-0.16666 4.2995-0.3671 7.9376-0.44575l6.616-0.14256-1.1027 0.90356c-0.60634 0.49707-1.4147 1.1669-1.7964 1.4899-0.38174 0.32299-1.3245 0.97239-2.0949 1.4437-0.77032 0.47129-1.4011 0.99401-1.4011 1.1606 0 0.16657-0.59595 0.55927-1.3236 0.87143-0.72761 0.31215-1.3216 0.75837-1.3216 0.99392 0 0.2356-0.18321 0.31267-0.40503 0.17068-0.22182-0.14194-0.46899-0.10157-0.55035 0.0883-0.18727 0.43731-2.4289 1.5671-6.1005 3.0741-1.5765 0.64707-3.1651 1.3385-3.5289 1.5361-0.3638 0.19758-2.4017 0.41512-4.5288 0.4839-3.503 0.11328-3.9392 0.0327-4.6335-0.85537-1.0043-1.2846-2.1853-0.8164-2.6801 1.0642-0.51206 1.9461 0.40216 3.505 2.8758 4.9013 1.7072 0.96372 2.5216 1.1015 6.4532 1.0943 3.3825-6e-3 4.8712-0.20442 5.9997-0.79916 0.82551-0.43504 1.7185-0.79209 1.9844-0.79312 0.60918-3e-3 5.4693-2.0428 5.8796-2.4677 0.16782-0.17381 1.1065-0.71227 2.0852-1.1987 2.1044-1.046 7.4423-4.5846 8.9065-5.9032 0.56665-0.5103 1.031-0.78233 1.031-0.60439 0 1e-3 7e-5 5e-3 0 6e-3v4e-3h2e-3v2e-3l4e-3 4e-3h2e-3v2e-3h2e-3c9.9e-4 -4e-5 3e-3 -7e-5 4e-3 0 0.15025-2e-3 1.2815-1.0953 2.6394-2.5641 1.4592-1.5785 2.5491-3.0443 2.4224-3.2568s-0.0204-0.45743 0.23643-0.54615c0.60515-0.20892 0.95624-4.4857 0.3682-4.4857-0.24198 0-0.32309-0.19706-0.17829-0.43973 0.59461-0.99648-3.9848-4.7988-5.4222-4.5017-0.16543 0.0342-0.59738-0.0557-0.96119-0.20079-1.4185-0.5658-3.0879-0.65254-3.0948-0.16063-5e-3 0.34274-0.11435 0.33201-0.33914-0.0341-0.22233-0.36214-2.2331-0.58263-6.0559-0.66261zm71.741 0.31122c-4.4713-0.017-5.5292 0.1087-5.9532 0.70478-0.2899 0.40751-0.99837 0.66913-1.6181 0.59635-1.3654-0.16033-6.9748 1.144-7.3058 1.6987-0.13342 0.2236-0.72574 0.4056-1.3178 0.4056-0.63099 0-1.0775 0.26601-1.0775 0.64253 0 0.4002-0.30728 0.55941-0.81586 0.42167-0.44892-0.12159-1.1289 0.10167-1.5115 0.49795-0.38264 0.39631-0.95383 0.72084-1.2693 0.72084-0.93045 0-4.7798 2.9118-4.7808 3.6162-4.7e-4 0.35585-0.11998 0.52417-0.2655 0.37347-0.1455-0.15071-0.94001 0.36257-1.7654 1.1405-0.79347 0.74782-1.3705 1.4478-1.3236 1.5943v2e-3l4e-3 4e-3c3.5e-4 4.4e-4 3e-3 3e-3 4e-3 4e-3v2e-3c0.10181 0.10546-0.14419 0.53765-0.54842 0.96178-0.40422 0.42412-1.0626 1.281-1.4612 1.9035-0.72147 1.127-0.7286 1.1144-1.9456-3.0721-1.0952-3.7673-1.8988-5.0778-2.7712-4.5198-0.26581 0.17002 0.0806 10.212 0.50773 14.726 0.0985 1.0405-0.0824 2.6782-0.40115 3.6383-0.31867 0.96009-0.68053 2.7007-0.80616 3.8692-0.12562 1.1685-0.43323 2.6792-0.68213 3.3572-0.57684 1.5717-0.57133 13.149 8e-3 15.561 0.2411 1.0048 0.51738 2.6735 0.61431 3.7086 0.19997 2.1347 2.2074 6.5679 2.9747 6.5679 0.2789 0 0.3689 0.14391 0.1996 0.31925-0.1693 0.17536 0.14626 0.59932 0.69958 0.94372 0.39304 0.24465 0.59723 0.38562 0.61819 0.43773v0.014l-6e-3 6e-3c-0.0386 0.0157-0.19909-0.0243-0.47478-0.11445-0.36075-0.11799-0.56268-0.14844-0.61044-0.10843l-6e-3 6e-3v2e-3c-7e-5 2.3e-4 -2e-3 5e-3 -2e-3 6e-3v4e-3c-0.011 0.12312 0.59714 0.54799 1.7325 1.1786 0.78454 0.43578 2.215 0.84054 3.1801 0.89955 1.4265 0.0872 1.7051-0.0256 1.4922-0.60037-0.14407-0.38884-0.0848-0.70678 0.12984-0.70678 0.21472 0 0.45987 0.2207 0.54648 0.48993 0.0917 0.28496 0.66124 0.0797 1.3604-0.48993 1.042-0.84894 1.1322-1.1101 0.68795-1.9738-0.2221-0.43177-0.33098-0.66665-0.31201-0.72888l4e-3 -4e-3v-6e-3l2e-3 -2e-3h2e-3v-2e-3h4e-3l4e-3 -4e-3h4e-3c0.0576-3e-3 0.22086 0.12429 0.4961 0.35942 0.62468 0.53365 0.75746 0.44711 1.0445-0.68469 0.60448-2.3833 0.24108-13.912-0.46122-14.64-0.15021-0.15557-0.27324-1.2756-0.27324-2.4898s-0.14754-2.2082-0.32944-2.2087c-0.1819-4.9e-4 -0.37584-0.65588-0.43021-1.4557-0.0544-0.79983-0.41538-2.1453-0.80229-2.9898-0.59428-1.2971-0.62839-2.0315-0.22285-4.7387 0.42808-2.8576 0.95856-4.221 2.4437-6.2727 0.94119-1.3003 5.0132-5.5519 5.3176-5.5519 0.17615 0 1.2861-0.6141 2.465-1.3654 1.0789-0.68754 1.981-1.156 2.1259-1.1124l2e-3 2e-3h2e-3l2e-3 2e-3c4.1e-4 3.2e-4 3e-3 3e-3 4e-3 4e-3h2e-3v6e-3h2e-3v4e-3l2e-3 2e-3h2e-3v0.01c0 0.15404 0.24719 0.0765 0.55036-0.17268 0.30317-0.2492 1.2958-0.59326 2.2053-0.76301 0.90951-0.16974 1.653-0.52642 1.653-0.79312 0-0.26671-0.29701-0.36547-0.66081-0.22087-0.36381 0.14458-0.66083 0.0626-0.66083-0.18071 0-0.59722 1.0312-0.56176 1.6278 0.0562 0.34163 0.3538 0.73485 0.35855 1.3526 0.016 0.47922-0.2656 0.99793-0.35339 1.1511-0.19477 0.15316 0.15863 0.27712 0.0907 0.27712-0.1526 0-0.24328 0.68105-0.46345 1.5135-0.48792 0.83245-0.0245 1.7752-0.21317 2.0949-0.41965s0.97803-0.43872 1.4631-0.51603c0.48507-0.0773 0.94959-0.34081 1.031-0.58632 0.0814-0.24552 0.32806-0.33104 0.55037-0.18874s2.062-0.4766 4.087-1.3774c2.025-0.90081 3.959-1.533 4.2982-1.4035 1.9545 0.74561 2.1819-2.5523 0.343-4.9736-1.9007-2.5027-4.0373-3.1879-10.015-3.2106zm-7.0248 0.41163c-0.077 5e-3 -0.17967 0.0296-0.3023 0.0783-0.3764 0.1496-0.68408 0.3531-0.68408 0.45179 0 0.36991 0.83982 0.16292 1.0988-0.27108 0.10621-0.17796 0.0571-0.26968-0.11241-0.25901zm376.41 2.0802c-2.6522 0-5.0198 2.1922-3.1646 2.9296 0.59945 0.23825 0.67121 0.71744 0.43021 2.8412-0.4378 3.8581-2.7865 11.154-4.9222 15.288-0.33865 0.65556-0.52123 1.2912-0.40501 1.4116 0.11622 0.12038-0.45735 1.5359-1.2751 3.1464-0.81778 1.6105-1.7379 3.7519-2.0445 4.7567-0.30658 1.0048-0.7608 2.0913-1.0096 2.4155s-0.51023 1.8029-0.58137 3.2869c-0.11191 2.3342-0.0143 2.7368 0.72477 2.9798 0.4699 0.15446 1.036 0.93638 1.2596 1.7368 0.17094 0.61193 0.29139 0.91713 0.37401 0.93369l2e-3 2e-3h0.012l2e-3 -2e-3h2e-3l2e-3 -2e-3c0.0465-0.0228 0.0829-0.15397 0.10658-0.38952 0.0506-0.50241 0.0675-1.0686 0.0388-1.257-0.08-0.5246 0.35383-0.41478 1.7538 0.44174 0.81082 0.49608 1.2809 1.1617 1.2809 1.8131 0 0.71719 0.19594 0.95041 0.64725 0.77104 0.35614-0.14155 0.60529-0.47009 0.5523-0.72886-0.053-0.25878 0.17136-0.57083 0.49997-0.69475 0.43457-0.16387 0.51794 0.0372 0.30232 0.74093-0.1756 0.57302-0.10631 0.9678 0.17247 0.9678 0.25889 0 0.47091-0.21788 0.47091-0.4839s0.16333-0.37841 0.36238-0.25099c0.55602 0.35591 3.1848-1.4618 3.058-2.1143-0.0616-0.31707 0.18462-0.5202 0.54842-0.45379 0.46116 0.0842 0.40444-0.0873-0.18798-0.56623-0.46741-0.37785-0.70449-0.8383-0.5271-1.022 0.17738-0.18372 0.48766-0.0558 0.68989 0.28312 0.5498 0.92137 1.2117 0.25305 1.5387-1.5521 0.15975-0.88199 0.46425-1.6043 0.67632-1.6043 0.36716 0 1.6054-3.3541 1.9786-5.3611 0.0965-0.51915 0.48004-1.5527 0.85267-2.2991 0.37263-0.74633 0.55316-1.487 0.40114-1.6445-0.15201-0.15745-0.0225-0.28513 0.28875-0.28513 0.34877 0 0.47741-0.35058 0.33526-0.9136-0.12685-0.5024-0.0181-0.9136 0.24223-0.9136 0.26031 0 0.35222-0.12705 0.20348-0.28111-0.14874-0.15405 0.0267-1.0487 0.38951-1.9878 0.36283-0.93917 0.61831-1.8907 0.56781-2.1163s0.0491-0.74049 0.22092-1.1425c0.26582-0.62206 0.10347-7.7276-0.1841-8.0598-0.13366-0.15436-0.21693-0.49541-0.64145-2.6264-0.84793-4.2562-3.674-7.9935-6.0443-7.9935zm-168.66 0.96983c0.44581 0.0527 1.0107 0.62607 1.2558 1.275 0.93539 2.4767-1.2266 7.6194-5.397 12.835-1.6108 2.0143-5.692 6.3872-5.961 6.3872-0.0744 0-1.6866 1.1906-3.5812 2.6464s-3.9997 2.894-4.6781 3.1966c-1.4338 0.63954-2.8048 0.71518-3.1297 0.17066-0.12504-0.20953-0.33385-0.98027-0.46316-1.7127-0.12932-0.73246-0.32753-1.8066-0.4399-2.3854-0.32422-1.67-0.16363-10.091 0.1996-10.479 0.31579-0.33751 0.212-1.337-0.19767-1.9115-0.36803-0.51617-0.31306-0.59747 0.25968-0.37547 0.56367 0.21848 0.80871-0.0964 1.0833-1.3975 0.19514-0.92465 0.33706-1.9389 0.31394-2.2529-0.0231-0.31401 0.15573-0.57025 0.39727-0.57025 0.24153 0 0.32078-0.31895 0.17634-0.70879-0.1444-0.38985-0.11711-0.61642 0.062-0.50198 0.17912 0.11445 1.1083-0.58778 2.0638-1.5602 1.2723-1.2947 2.2473-1.8473 3.6432-2.0641 1.0484-0.16283 1.9842-0.42489 2.0794-0.5843 0.15199-0.25464 10.17-0.25943 12.313-6e-3zm100.95 2.9657c0.31403 3e-3 0.74929 0.32932 1.281 0.97987 0.56782 0.69479 1.9185 1.9794 3.0018 2.8552 1.0833 0.87588 2.4499 2.0351 3.0367 2.5762 0.5868 0.54105 1.5825 1.2601 2.2131 1.5983 0.6306 0.33815 2.4187 1.5918 3.9727 2.785 1.5539 1.1932 2.9982 2.1686 3.2091 2.1686 0.68445 0 5.7205 5.6609 6.583 7.3992 0.92893 1.8721 0.56201 4.0198-0.68795 4.0198-0.36981 0-0.67245 0.16009-0.67245 0.3554 0 0.43681-4.5435 2.5006-8.2864 3.7648-4.7191 1.594-10.603 1.5053-11.792-0.17871-0.28909-0.40948-0.78387-0.74493-1.1007-0.74493-0.31708 0-0.46196-0.11774-0.32169-0.26304 0.14028-0.14528-0.24407-1.7384-0.85461-3.54-0.69668-2.0557-1.132-4.3814-1.1685-6.2446-0.0319-1.6328-0.25825-3.1205-0.50385-3.305-0.29212-0.21949-0.27866-0.33723 0.0407-0.34134 0.26853-4e-3 0.46311-0.65952 0.43215-1.4557-0.031-0.79622 0.0547-2.6456 0.18992-4.1102 0.12891-1.3967 0.11124-2.5544-0.031-2.6585-4.9e-4 -2.6e-4 -3e-3 -2e-3 -4e-3 -2e-3h-2e-3c-9.9e-4 -3.3e-4 -3e-3 -2e-3 -4e-3 -2e-3h-2e-3c-9.9e-4 -1.5e-4 -5e-3 0-6e-3 0-6e-3 0-0.0139-2e-3 -0.0193-4e-3 -0.1285-0.0676 5e-3 -0.81088 0.31393-1.7087 0.32458-0.94201 0.59788-2.1643 0.60849-2.7147 0.0159-0.82088 0.21772-1.2319 0.57362-1.2288zm220.6 1.0883c0.36381 0 0.66276 0.082 0.66276 0.18071 0 0.0987-0.29895 0.29714-0.66276 0.44173-0.3638 0.1446-0.66082 0.0647-0.66082-0.17869 0-0.24332 0.29702-0.44375 0.66082-0.44375zm0.81391 1.5461c-0.0472 2e-3 -0.0981 0.0182-0.15115 0.0522-0.24255 0.15525-0.44184 0.47643-0.44184 0.71281s0.19929 0.42969 0.44184 0.42969c0.24253 0 0.4399-0.32117 0.4399-0.71281 0-0.30596-0.12011-0.48964-0.28875-0.4819zm-692.69 14.591c0.35313 0 0.64145 0.17216 0.64145 0.3815 0 0.20933-0.18648 0.37951-0.41471 0.37951-0.22823 0-0.51653-0.17018-0.64145-0.37951-0.12491-0.20934 0.06152-0.3815 0.41471-0.3815zm617.51 6.7687c0.0308 4.5e-4 0.0623 7e-3 0.095 0.0181 0.26072 0.0901 0.47478 0.3597 0.47478 0.59836 0 0.23864-0.21406 0.50629-0.47478 0.59635-0.26073 0.0901-0.47285-0.17769-0.47285-0.59635 0-0.36634 0.16239-0.61956 0.37789-0.61643zm1.7208 4.2006c0.29923-9e-3 0.58798 0.20545 0.72091 0.56422 0.10936 0.2952 0.15566 0.46367 0.12208 0.51403l-0.01 0.01c-2.1e-4 1e-4 -5e-3 2e-3 -6e-3 2e-3 -0.0601 0.0193-0.21719-0.0925-0.49028-0.32729-0.45951-0.39493-0.67246-0.41502-0.67246-0.0643 0 0.62517-0.44504 0.64424-1.3236 0.0562-0.57192-0.38282-0.56059-0.44361 0.0756-0.44978 0.40461-4e-3 1.0236-0.12299 1.3759-0.26303 0.0684-0.0271 0.1383-0.04 0.20735-0.0421zm2.217 0.29717c-0.19338 0.0184-0.34688 0.31967-0.34688 0.6847 0 0.37681 0.16415 0.68671 0.36626 0.68671s0.3682-0.3099 0.3682-0.68671c0-0.3768-0.16609-0.6847-0.3682-0.6847-6e-3 0-0.0131-5.9e-4 -0.0194 0zm-187.43 0.70077c-0.11917 8e-3 -0.32105 0.13997-0.54842 0.37547-0.36381 0.3768-0.66082 0.82764-0.66082 1.002s0.29701 0.0617 0.66082-0.25099c0.3638-0.31272 0.66081-0.76356 0.66081-1.002 0-0.0894-0.0409-0.12935-0.11239-0.12448zm183.49 0.21283c7e-3 -5.5e-4 0.0139 0 0.0213 0 0.23779 0 0.56297 0.22001 0.72283 0.48793 0.45247 0.75827 0.0459 0.86209-0.58718 0.15059-0.30295-0.34048-0.36926-0.62132-0.15697-0.63852zm-499.54 4.1102c-0.25685 0-0.46703 0.20661-0.46703 0.45781 0 0.25121 0.0888 0.45579 0.19573 0.45579 0.10695 0 0.31714-0.20458 0.46703-0.45579 0.14989-0.2512 0.0611-0.45781-0.19573-0.45781zm417.99 1.4276c0.1532 6e-3 0.28525 0.0486 0.35851 0.1245 0.14653 0.15178-0.11456 0.25878-0.57942 0.23894-0.51371-0.0219-0.6192-0.12929-0.26743-0.27509 0.15917-0.066 0.33516-0.0949 0.48834-0.0883zm-152.49 0.85739c-0.24254 0-0.56325 0.20459-0.71315 0.45579s-0.0739 0.45781 0.1686 0.45781c0.24253 0 0.56324-0.20661 0.71314-0.45781 0.14989-0.2512 0.0739-0.45579-0.16859-0.45579zm152.31 0.15059c0.0646 4.2e-4 0.13941 0.0254 0.21898 0.0763 0.24254 0.15525 0.4399 0.37314 0.4399 0.48391 0 0.11074-0.19736 0.20279-0.4399 0.20279-0.24253 0-0.44183-0.21787-0.44183-0.4839 0-0.1663 0.0784-0.26507 0.19573-0.27709 9e-3 -9e-4 0.0179-2e-3 0.0271-2e-3zm-5.4881 1.7268c-0.15853 0.0135-0.3134 0.14661-0.46316 0.39757-0.25687 0.43049-0.21389 0.78735 0.11821 0.99994 0.67245 0.43046 1.2972-0.6179 0.72284-1.2128-0.12862-0.13321-0.25459-0.19519-0.37789-0.18473zm-336.96 9.0838c0.25685 0 0.46509 0.2046 0.46509 0.4558s-0.0868 0.4578-0.19379 0.4578c-0.10696 0-0.31713-0.2066-0.46703-0.4578s-0.0611-0.4558 0.19573-0.4558zm62.881 29.687h2e-3c2e-3 -6e-5 5e-3 0 8e-3 0 0.10694 0 0.19378 0.2066 0.19378 0.45781 0 0.2512-0.21018 0.45579-0.46703 0.45579-0.25687 0-0.34368-0.20459-0.19378-0.45579 0.14521-0.24335 0.34763-0.44551 0.45733-0.45781zm-4.8505 3.6544h2e-3c2e-3 -6e-5 5e-3 0 8e-3 0 0.10695 0 0.19379 0.2046 0.19379 0.4558s-0.21018 0.4578-0.46703 0.4578c-0.25687 0-0.34369-0.2066-0.19379-0.4578 0.1452-0.24336 0.34764-0.44351 0.45734-0.4558zm-3.6548 0.15059c0.11824-8e-3 0.2891-6e-4 0.51547 0.0141 0.57883 0.0373 0.99032 0.38284 1.0251 0.86139 0.0725 0.99724-0.33579 0.96483-1.2693-0.10034-0.50695-0.57884-0.62602-0.74998-0.2713-0.77505zm-284.83 7.3128h4e-3c0.04138-6.9e-4 0.09158 0.0707 0.14728 0.21486 0.12738 0.32969 0.11173 0.72368-0.03493 0.87544-0.14658 0.15177-0.25169-0.11689-0.23254-0.59835 0.0122-0.30761 0.05358-0.47508 0.1124-0.48994h2e-3zm-8.9395 3.7367c-0.03512 3e-3 -0.07184 0.0154-0.11046 0.0402-0.2061 0.13191-0.26163 0.43279-0.12209 0.66663 0.35659 0.59758 0.4961 0.52917 0.4961-0.24096 0-0.29717-0.11128-0.47877-0.26355-0.46583z" stroke-width="1.01"/><path d="m328.32 294.91c-1.0051 0.0597-2.0296 0.54595-3.027 0.77104-2.455 0.5541-4.9284 1.1076-7.2787 2.028-1.2863 0.50372-2.4796 1.236-3.6975 1.8975-3.3349 1.8112-6.6093 3.7414-9.8832 5.6683-0.53084 0.31245-1.0546 0.63392-1.5813 0.95377-0.73634 0.44714-1.4745 0.8906-2.2053 1.3473-0.8611 0.53809-1.7136 1.0926-2.5677 1.6425-0.69924 0.45022-1.3991 0.90133-2.0949 1.3574-0.69146 0.45324-1.3829 0.90554-2.0677 1.3694-2.1447 1.4526-4.2098 3.0326-6.3912 4.4254-0.46747 0.29851-0.9779 0.52453-1.434 0.84132-0.30951 0.21495-0.57263 0.49342-0.87787 0.71481-0.21268 0.15426-0.44447 0.28008-0.66276 0.42569-0.22279 0.14859-0.45415 0.28599-0.66081 0.4578-0.16557 0.13764-0.28362 0.3323-0.45928 0.45579-0.30079 0.21146-0.67531 0.28334-0.9922 0.46785-0.9613 0.55967-1.8277 1.2811-2.7382 1.9256-0.81025 0.57351-1.6078 1.1649-2.4243 1.7288-0.98272 0.67867-2.0095 1.2875-2.9766 1.9898-0.94461 0.68606-1.785 1.5227-2.7557 2.1685-0.11993 0.0798-0.25352 0.13869-0.37789 0.21083-0.62081 0.36009-1.2474 0.71103-1.8429 1.1144-0.62017 0.42005-1.1794 0.93041-1.7964 1.3553-0.29607 0.20388-0.61741 0.36721-0.91274 0.57225-0.76942 0.53421-1.535 1.0836-2.2344 1.7128-0.59305 0.53353-1.0346 1.2371-1.653 1.7388-0.14582 0.11832-0.31266 0.20802-0.47866 0.29315-0.41932 0.21506-0.89108 0.30916-1.3003 0.54415-0.95196 0.54661-1.9974 1.0807-2.6414 1.9898-0.10587 0.14949-0.0888 0.36315-0.17053 0.52808-0.0409 0.0824-0.092 0.16125-0.15697 0.22488-1.4811 1.4513-3.4572 2.2401-5.1509 3.4155-1.3134 0.91152-2.6715 1.77-3.8855 2.8191-0.27766 0.23996-0.48176 0.56472-0.77128 0.78912-0.12522 0.097-0.26624 0.17525-0.41084 0.23693-0.22023 0.0939-0.48063 0.32221-0.68795 0.20079-1.9656-1.1512-1.2185-4.505-1.7809-6.7707-0.70174-2.8272-1.1803-5.7164-1.9863-8.5135-0.0433-0.15024-0.1015-0.29434-0.1531-0.44174-0.0828-0.23668-0.12641-0.49324-0.25192-0.70879-0.0785-0.13473-0.21764-0.22218-0.30426-0.35139-0.44239-0.65981-0.62674-1.4813-1.0755-2.1364-0.36258-0.52932-0.75781-1.0718-1.2868-1.4196-0.2066-0.13583-0.45348-0.21862-0.69765-0.23492-1.1813-0.0788-2.6481-0.18343-3.4921 0.67667-1.5597 1.5896-1.0213 4.4156-1.312 6.6622-0.59664 4.612-0.55257 9.2897-0.87592 13.931-0.12735 1.8279-0.0479 3.6876-0.41858 5.4796-0.41991 2.03-0.85386 4.1791-2.0232 5.8651-0.73399 1.0583-1.9897 1.5961-2.963 2.4215-0.60434 0.51251-1.1819 1.0603-1.7867 1.5722-0.76756 0.64968-1.5427 1.2894-2.3371 1.9035-0.35664 0.27571-0.73011 0.52672-1.0891 0.79914-0.78543 0.59602-1.5602 1.2088-2.3294 1.8272-1.1864 0.95393-2.3585 1.9261-3.527 2.9034-1.3308 1.1131-2.6411 2.2517-3.9668 3.3713-1.1393 0.9621-2.3071 1.8881-3.4262 2.8753-1.1537 1.0178-2.2772 2.0741-3.3894 3.1404-0.48185 0.46196-0.95312 0.93596-1.4224 1.4116-2.767 2.8042-5.8846 5.2993-8.2147 8.5015-4.6128 6.3392-9.7699 13.022-11.143 20.832-1.6439 9.3518 1.023 19.221 3.9979 28.213 2.1525 6.5062 5.2074 12.998 9.8038 17.961 1.6553 1.7871 6.4847 1.4783 6.0908 3.9214 0.0927 0.88006 1.71-0.0143 2.5638 0.02 0.30754 0.0123 0.61302 0.0522 0.92049 0.0663 0.57441 0.0258 1.15 0.0147 1.7247 0.0321 0.3736 0.0113 0.76601 0.17024 1.1201 0.0462 0.1682-0.0589 0.27339-0.23492 0.41083-0.35139 0.13589-0.11515 0.23388-0.35764 0.4089-0.34335 0.2468 0.0202 0.25686 0.63014 0.49804 0.57226 0.17424-0.0419 0.0469-0.38206 0.14922-0.53411 0.0832-0.12372 0.22808-0.18794 0.35075-0.26906 0.8864-0.58624 1.8544-1.0298 2.7654-1.5742 0.29204-0.17453 0.58684-0.34666 0.86624-0.54214 0.55561-0.38874 1.3009-0.63466 1.6065-1.2529 0.0957-0.1937 0.13371-0.4741 0.0136-0.65256-0.0978-0.14529-0.47752 4e-3 -0.48447-0.17269-0.0151-0.40493 0.75261-0.25529 1.0755-0.4839 0.39907-0.28252 0.70789-0.68494 1.0213-1.0662 0.069-0.084 0.11665-0.18522 0.18799-0.26706 0.30672-0.35177 0.69742-0.61483 1.0213-0.94974 0.2826-0.29227 0.5606-0.59432 0.80229-0.92364 1.2719-1.7331 2.0154-3.8587 3.3874-5.5077 0.13464-0.16182 0.34463-0.24772 0.46702-0.41965 0.0954-0.13391 0.129-0.30556 0.19379-0.4578 0.0648-0.15225 0.11497-0.31195 0.19573-0.4558 0.13139-0.23406 0.33116-0.42128 0.46703-0.65257 0.2381-0.40531 0.39736-0.85595 0.60463-1.279 0.58397-1.1921 1.1597-2.3896 1.8003-3.55 0.1349-0.24438 0.30266-0.46826 0.43022-0.71683 0.26466-0.51576 0.44971-1.0708 0.69182-1.5983 0.13619-0.29675 0.31626-0.57405 0.42827-0.88147 0.0805-0.22087 0.0987-0.46131 0.17248-0.68469 0.0775-0.23486 0.18713-0.45634 0.28099-0.68471 0.0939-0.22836 0.224-0.44614 0.28293-0.6867 0.0552-0.22328-6.9e-4 -0.46572 0.062-0.68671 0.33075-1.1647 1.1314-2.1294 1.6162-3.2347 0.0595-0.1358 0.0956-0.28373 0.1589-0.41765 0.43281-0.91441 1.0692-1.7138 1.5057-2.6264 0.93249-1.9493 1.5811-4.0296 2.3604-6.0498 0.20524-0.53206 0.44585-1.0533 0.61043-1.6003 0.25812-0.85792 0.36141-1.7587 0.58719-2.6264 0.11006-0.42298 0.27995-0.82783 0.37401-1.2549 0.0496-0.22517 0.0435-0.46099 0.0988-0.6847 0.0583-0.23567 0.17-0.45319 0.24224-0.6847 0.11459-0.3674 0.20944-0.74246 0.30231-1.1164 0.10572-0.42556 0.16364-0.86381 0.29068-1.283 0.15663-0.5169 0.4335-0.99171 0.57943-1.512 0.3045-1.0856 0.45026-2.2128 0.61044-3.3311 0.12595-0.87933 0.15909-1.7716 0.27517-2.6524 0.0937-0.71031 0.21319-1.4154 0.33914-2.1204 0.12131-0.679 0.16484-1.3843 0.40113-2.03 0.0752-0.20546 0.24073-0.36555 0.31783-0.57025 0.16396-0.43538 0.22336-0.90822 0.29648-1.3694 0.0841-0.5311 0.0762-1.0736 0.16279-1.6043 0.15737-0.96432 0.47368-1.8956 0.64532-2.8573 0.21531-1.2064 0.70194-2.4412 0.48059-3.6464-0.0731-0.398-0.52132-0.65867-0.57361-1.0602-0.0189-0.14453 0.0221-0.30477 0.10077-0.42567 0.13021-0.19994 0.45464-0.2118 0.56586-0.42367 0.16313-0.31075 0.0453-0.70655 0.0543-1.0602 0.017-0.68488-0.0271-1.3694-4e-3 -2.0541 0.0117-0.34323 0.0648-0.68468 0.0717-1.028 6e-3 -0.30456-0.0359-0.60918-0.0252-0.91359 0.0112-0.31798 0.0809-0.63189 0.095-0.94975 4e-3 -0.0909 7e-3 -0.18281-4e-3 -0.27307-0.0299-0.25921-0.154-0.5024-0.16859-0.76301-0.0601-1.0768 0.23125-2.1443 0.34301-3.2167 0.0212-0.20412 0.0409-0.40827 0.062-0.61241 0.17846-1.7247 0.0677-3.5102 0.54648-5.1724 1.2036-4.1779 2.9766-8.3571 5.7303-11.654 1.3938-1.6687 3.4257-2.6298 5.2187-3.821 0.26158-0.17378 0.5672-0.28013 0.80617-0.48592 0.1489-0.12821 0.24286-0.31402 0.37983-0.45579 0.16305-0.16877 0.34247-0.32026 0.52516-0.46583 3.2311-2.5745 6.6233-4.9339 10.071-7.1863 0.61617-0.40254 1.2637-0.74892 1.8933-1.1284 0.17323-0.10442 0.35829-0.18902 0.51742-0.31524 0.18063-0.14329 0.30787-0.35246 0.48835-0.49597 0.5758-0.45788 1.2685-0.73373 1.8739-1.1485 1.4965-1.0252 2.8388-2.2795 4.3351-3.305 0.78171-0.53578 1.6309-0.96055 2.4204-1.4838 0.5018-0.33258 0.98104-0.6989 1.4709-1.0501 0.99194-0.71127 1.9952-1.408 2.9727-2.1404 0.63351-0.47469 1.1984-1.0541 1.8739-1.4618 0.26001-0.15691 0.55405-0.24132 0.82748-0.37146 0.46649-0.22202 0.93319-0.44537 1.3856-0.69674 0.26381-0.14658 0.51707-0.31136 0.77322-0.47186 0.55999-0.35091 1.0736-0.7896 1.6685-1.0722 0.31127-0.14789 0.66305-0.18646 0.98057-0.31926 0.37235-0.15573 0.77637-0.28094 1.0775-0.5562 0.10828-0.099 0.13098-0.2757 0.24029-0.37347 1.5266-1.3654 3.7046-1.6694 5.4726-2.6745 0.60423-0.34351 1.1591-0.77347 1.748-1.1445 0.62113-0.39136 1.2579-0.75378 1.8817-1.1405 0.60447-0.37472 1.2031-0.76189 1.8042-1.1425 0.60104-0.38062 1.2055-0.7547 1.8022-1.1425 0.57505-0.37372 1.1419-0.76055 1.7131-1.1405 1.7771-1.182 3.5639-2.3484 5.335-3.5399 1.9656-1.3223 4.0317-2.5022 5.8718-4.0058 2.3914-1.954 4.3633-4.4084 6.6644-6.4755 0.14229-0.12781 0.29964-0.2375 0.44183-0.36544 0.15238-0.13708 0.31764-0.26334 0.43991-0.42969 0.15694-0.21353 0.2546-0.46967 0.36432-0.7128 1.0169-2.2536 1.9133-4.566 2.7305-6.9052 0.41348-1.1836 1.4502-2.3979 1.0968-3.6022-0.14621-0.49826-0.69177-0.84485-1.1782-0.97584-0.16129-0.0434-0.32342-0.0699-0.4864-0.0824-0.14262-0.0109-0.28663-0.0105-0.43022-2e-3zm169.44 67.239c-3.5395-0.19744-7.0932 0.17677-10.622 0.52808-0.53198 0.0529-1.0581 0.14574-1.5852 0.23693-1.5221 0.26323-3.0746 0.42543-4.5502 0.89352-0.6456 0.20481-1.2291 0.57782-1.8584 0.83127-0.69265 0.27896-1.4165 0.47116-2.1065 0.75699-3.2989 1.3664-6.511 2.9539-9.705 4.566-0.88511 0.44676-1.7666 0.90483-2.62 1.4136-1.9436 1.1586-3.7269 2.5924-5.6838 3.7267-0.21832 0.12653-0.4553 0.21625-0.67439 0.34134-0.43011 0.24557-0.86417 0.49208-1.2558 0.79915-0.47542 0.37282-0.87967 0.83575-1.3158 1.257-4.4116 4.2602-9.2984 8.0608-13.164 12.857-1.4157 1.7563-2.2721 3.9358-3.6122 5.7547-0.0895 0.12151-0.20218 0.22419-0.29456 0.34335-0.64579 0.83262-1.2305 1.7155-1.8139 2.5962-0.70128 1.0587-1.4879 2.0725-2.027 3.2287-0.26183 0.56148-0.32 1.2075-0.57361 1.773-0.0906 0.20197-0.22111 0.38355-0.33525 0.57226-0.40226 0.665-0.76816 1.3577-1.2325 1.9778-0.33798 0.45133-0.62215 1.4935-1.124 1.257-1.3813-0.65119-1.5166-2.4768-1.0697-4.3712-4e-3 0.0154-7e-3 0.0309-0.0116 0.0462-1.6296 5.7202-2.3194 11.692-3.839 17.445-0.23181 0.87754-0.47432 1.7551-0.80422 2.5982-0.13284 0.33951-0.35001 0.64162-0.47091 0.98588-0.10913 0.31075-0.13029 0.64857-0.22673 0.9638-0.0425 0.13882-0.087 0.27709-0.1531 0.4056-0.25564 0.4968-0.66727 0.89658-0.92631 1.3915-0.47412 0.90581-0.79447 1.8893-1.1356 2.8572-0.2299 0.65234-0.37376 1.3368-0.61238 1.9858-0.1331 0.36201-0.30056 0.70958-0.45539 1.0622-0.12144 0.27654-0.28685 0.53455-0.37208 0.82524-0.11568 0.39427-0.0994 0.81775-0.18217 1.2208-0.49997 2.4348-1.8251 4.7199-1.8875 7.2084-0.0477 1.9028 0.43141 3.8347 1.1647 5.58 0.0947 0.22547 0.25236 0.4198 0.40695 0.60639 0.79655 0.96149 2.9616 1.4893 3.0134 2.54 0.47675-1.0162 3.4838 0.64087 4.9009 0.0904 0.25336-0.0984 0.449-0.31893 0.6395-0.51803 0.48399-0.50582 0.75313-1.2088 1.2558-1.6947 0.13333-0.12891 0.3533-0.15669 0.45541-0.31324 1.6557-2.5386 1.0502-6.0363 1.7945-9.0015 0.0892-0.35531 0.21207-0.70038 0.31976-1.0501 0.71604-2.3256 1.1464-4.772 2.1724-6.9695 0.11188-0.23963 0.30461-0.43128 0.42827-0.66461 0.21903-0.41329 0.40077-0.84781 0.55036-1.2931 0.14973-0.44568 0.19544-0.92563 0.34494-1.3714 0.55331-1.6498 1.3546-3.1977 2.0367-4.7949 0.23429-0.54858 0.4436-1.1094 0.70539-1.6445 0.1531-0.31291 0.35804-0.59795 0.50579-0.9136 0.25377-0.54215 0.49687-1.0956 0.65113-1.6766 0.13803-0.51988 0.11766-1.0743 0.2403-1.5983 0.0164-0.0701 0.0295-0.14322 0.0659-0.2048 0.26877-0.45497 0.76698-0.72007 1.0813-1.1425 1.273-1.7106 2.1709-3.6882 3.2014-5.5659 0.26685-0.48626 0.49656-0.99429 0.77128-1.4758 0.18321-0.32112 0.36803-0.64421 0.58524-0.94171 0.50195-0.68748 1.1043-1.2896 1.653-1.9376 2.6046-3.076 5.0232-6.3271 7.7768-9.2605 0.56736-0.60441 1.1656-1.1802 1.7964-1.7127 0.59163-0.49944 1.2788-0.87351 1.8604-1.3855 0.31684-0.27891 0.58667-0.60813 0.88174-0.9116 0.29705-0.30551 0.56408-0.64589 0.89337-0.91359 0.44676-0.36321 0.9714-0.61337 1.4515-0.92765 3.7968-2.4855 7.5134-5.098 11.308-7.5879 1.3202-0.86638 2.5566-1.9043 3.9862-2.5581 0.13569-0.062 0.28481-0.0855 0.42827-0.12449 0.58346-0.1586 1.1863-0.24538 1.7596-0.43973 0.49659-0.16836 0.96204-0.42157 1.4457-0.62648 0.35586-0.15077 0.70159-0.3358 1.0717-0.44374 4.0043-1.168 8.4278-3.7413 12.302-2.1706 0.65789 0.26675 0.99193 1.0794 1.2945 1.7409 0.27548 0.60219 0.32954 1.2908 0.43797 1.9477 0.3895 2.3596 0.71753 4.7446 0.75771 7.1381 0.0578 3.4494-0.35499 6.8948-0.74803 10.321-0.11045 0.96272-0.33445 1.9074-0.45153 2.8693-0.12915 1.0612-0.15523 2.1343-0.27518 3.1966-0.11282 0.99925-0.2358 1.9997-0.41857 2.9878-0.10742 0.58067-0.3039 1.1415-0.39727 1.7248-0.39967 2.496-1.0375 5.052-0.68602 7.5558 0.0452 0.32141 0.28983 0.58696 0.35076 0.90557 0.0226 0.11831 0.0161 0.2415 4e-3 0.36142-0.0571 0.55214-0.30889 1.0711-0.35463 1.6244-0.15143 1.8337 0.11457 3.6807 0.27324 5.5137 0.1101 1.2718 0.23751 2.5471 0.47091 3.801 0.0401 0.21515 0.11397 0.42039 0.15891 0.63451 0.11667 0.55608 0.14069 1.1341 0.28681 1.6826 0.13945 0.52353 0.33771 1.0292 0.55811 1.522 0.45824 1.0245 0.9855 2.0189 1.5794 2.9657 0.17809 0.28394 0.35902 0.57479 0.593 0.81121 0.90825 0.91773 2.1199 1.4527 3.089 2.3011 0.10111 0.0885 0.17484 0.20998 0.28294 0.28914 0.19576 0.14332 0.41712 0.25578 0.64725 0.32527 0.27816 0.0839 0.57479 0.0931 0.8643 0.10442 1.0872 0.0424 2.2382 0.24783 3.2595-0.14055 0.48672-0.18509 0.78602-0.70687 1.2267-0.9899 0.43003-0.27621 0.94637-0.39114 1.3682-0.68068 0.48731-0.33453 0.90325-0.77363 1.3158-1.2027 0.57196-0.59489 1.1718-1.183 1.6007-1.8955 0.2741-0.45531 0.44419-0.97232 0.60074-1.4838 0.0632-0.20659 0.0514-0.43814 0.13566-0.63651 0.16247-0.38264 0.57336-0.62706 0.69376-1.026 0.24019-0.79597-0.0375-1.6683-0.0116-2.5018 4e-3 -0.1144 0.0104-0.22967 0.0232-0.34336 0.12098-1.075 0.49384-2.1204 0.50773-3.2026 0.0138-1.0756-0.31275-2.129-0.42246-3.1986-0.0195-0.18978-0.0429-0.3794-0.0427-0.57025 2e-3 -1.489 0.23623-2.9683 0.33719-4.4535 0.1112-1.6357 0.37975-3.2718 0.2965-4.9093-0.0183-0.3591-0.15269-0.70531-0.17442-1.0642-5e-3 -0.0887 0.0146-0.17622 0.0116-0.26504-0.0214-0.75008-0.10438-1.5002-0.22091-2.2408-0.0269-0.17101-0.17922-0.34804-0.11046-0.50599 0.10338-0.23759 0.64266-0.11753 0.66081-0.37749 0.0122-0.17491-0.35243-0.15056-0.40501-0.31724-0.06-0.19022 0.12702-0.37884 0.16859-0.57427 0.16314-0.76714 0.18577-1.5597 0.31782-2.3332 0.10724-0.62816 0.31881-1.237 0.3837-1.8714 0.0362-0.35438 3e-3 -0.71386 2e-3 -1.0702-2e-3 -0.41492-6e-3 -0.83001-0.0116-1.2449-8e-3 -0.54114 0.33006-1.2294-0.0291-1.6224-0.27596-0.30198-1.0314 0.28426-1.2015-0.0923-0.0701-0.15508 0.1601-0.30819 0.28875-0.41564 0.32211-0.26905 0.82449-0.23405 1.1395-0.51202 0.14267-0.12591 0.33634-0.29898 0.30231-0.48993-0.0443-0.24845-0.48499-0.22238-0.58718-0.45177-0.14973-0.33607-0.0367-0.75632 0.0736-1.1084 0.12703-0.40529 0.89855-0.73888 0.655-1.0823-0.0788-0.111-0.2554 0.0767-0.38564 0.10441-0.22623 0.0481-0.45593 0.1274-0.68601 0.10643-0.25108-0.0229-0.56042-0.0464-0.71702-0.25099-0.26294-0.34362-0.43904-1.0208-0.12015-1.3092 0.23029-0.20821 0.60342 0.31699 0.89337 0.21685 0.29323-0.10136 0.51209-0.42834 0.59494-0.7369 0.16031-0.5973-0.18371-1.2246-0.27519-1.8372-0.0571-0.38258-5e-3 -0.80161-0.17053-1.1485-0.0959-0.20054-0.50456-0.26749-0.4496-0.4839 0.0452-0.1777 0.39051-0.0206 0.50967-0.15661 0.25809-0.29475 0.20886-0.77475 0.21899-1.1726 0.0181-0.71553 0.0544-1.5052-0.28875-2.1264-0.16318-0.29539-0.52903-0.40464-0.77128-0.6345-0.11202-0.10629-0.26165-0.19357-0.31394-0.34134-0.46758-1.3222 1.4049-3.5098 0.2306-4.2186-0.28129-0.16981-0.5127 0.44178-0.82166 0.54816-0.1678 0.0578-0.44481 0.19922-0.52905 0.0381-0.13088-0.25012 0.39394-0.4166 0.4961-0.68068 0.19771-0.51105 0.29375-1.1033 0.18604-1.6425-0.0926-0.4636-0.32413-0.9398-0.68601-1.2288-0.17052-0.13623-0.548 0.032-0.624-0.17669-0.0937-0.25718 0.3697-0.42307 0.43797-0.68871 0.13657-0.53132 0.0982-1.136-0.0988-1.6465-0.21446-0.55568-0.86611-0.83299-1.1143-1.3734-0.0842-0.18337-0.0552-0.40354-0.11047-0.59837-0.22534-0.79435-0.55735-1.5548-0.8953-2.3051-0.33451-0.74265-0.5403-1.6089-1.1182-2.1686-0.11185-0.10832-0.3037-0.0899-0.41859-0.19476-0.49609-0.45281-0.53357-1.3086-1.0368-1.7529-0.1857-0.16398-0.45172-0.19045-0.67633-0.28914-0.28309-0.12447-0.59888-0.19034-0.84491-0.3815-0.54998-0.4273-0.7862-1.1963-1.3236-1.6405-0.41937-0.34662-0.90486-0.86159-1.4321-0.75899-0.21049 0.0409-0.22169 0.55657-0.42827 0.49797-0.24166-0.0686-0.0306-0.53322-0.1434-0.76502-0.0948-0.19467-0.24692-0.36799-0.42634-0.48189-0.26002-0.16509-0.58709-0.17159-0.88174-0.25301-0.6693-0.18489-1.335-0.38922-2.0135-0.5341-0.60829-0.1299-1.2208-0.26453-1.841-0.29917zm-73.715 89.061c-0.0452 0.0964-0.0677 0.21865-0.064 0.36744 0.0498-0.12905 0.0697-0.25221 0.064-0.36744zm75.921-87.641c0.20783 0 0.44183 0.24246 0.44183 0.4578 0 0.21535-0.234 0.4558-0.44183 0.4558-0.20784 0-0.4399-0.24045-0.4399-0.4558 0-0.21534 0.23206-0.4578 0.4399-0.4578zm-270.16 10.238c0.32691 3e-3 0.65579 0.0858 0.99026 0.26706 0.71657 0.38822 0.0239 1.6763 0.0834 2.5119 0.06 0.84278 0.31259 1.6757 0.27518 2.5199-6e-3 0.12569-0.0463 0.24685-0.0736 0.36945-0.16145 0.72469-0.39069 1.4327-0.52904 2.1625-0.38367 2.0238-0.7169 4.067-0.82942 6.1261-0.0435 0.79594 0.0283 1.5949 0.0601 2.3914 5e-3 0.11802 0.0295 0.23574 0.0194 0.35339-0.27115 3.1422-1.4234 6.1351-2.1278 9.2043-0.74619 3.2512-1.479 6.5066-2.2228 9.7584-0.40927 1.7893-0.57645 3.6565-1.2325 5.3651-0.10975 0.28585-0.35155 0.50738-0.44571 0.79915-0.11246 0.3485-0.0679 0.7325-0.12983 1.0943-0.076 0.44406-0.15589 0.89039-0.2965 1.3172-0.29907 0.90776-0.81078 1.7271-1.153 2.6183-0.44425 1.1568-0.85307 2.3315-1.1647 3.5339-0.15049 0.5807-0.16917 1.1961-0.33913 1.771-0.0642 0.21728-0.14265 0.43381-0.2558 0.62848-0.1326 0.22811-0.3518 0.39158-0.48641 0.61843-2.0051 3.3791-2.9885 7.3057-4.6509 10.879-0.73538 1.5806-1.4981 3.1515-2.3526 4.6664-0.61067 1.0827-1.3052 2.1124-1.9786 3.1544-0.091 0.14081-0.18053 0.28239-0.27905 0.41765-0.38976 0.53506-1.3754 0.96905-1.5426 1.514-0.45919-2.0955-5.9714 1.074-8.1798-0.35741-5.322-3.4494-8.057-10.452-9.6914-16.732-1.1904-4.5737-0.81631-9.5891 0.18992-14.21 0.91911-4.2209 3.5564-7.8308 5.2226-11.798 0.11548-0.275 0.21713-0.55572 0.33138-0.83128 0.17755-0.42821 0.31864-0.87758 0.55036-1.277 0.33895-0.5843 0.7962-1.085 1.2131-1.6124 1.9375-2.4509 3.9717-4.819 5.9861-7.2024 0.68053-0.80515 1.2982-1.6747 2.06-2.3974 0.5948-0.56433 1.297-0.99598 1.9418-1.4979 3.254-2.533 6.2974-5.3742 9.7263-7.6461 0.2587-0.1714 0.55024-0.28468 0.81391-0.44776 1.3333-0.82463 2.5792-1.7945 3.8777-2.6766 2.2095-1.5009 4.3314-5.3796 6.6198-5.3551zm148.38 9.9472c-0.37276 0.0187-0.80897 0.26581-1.184 0.33332-0.70611 0.12711-1.4305 0.21851-2.0968 0.49194-0.87594 0.35945-1.6447 0.95387-2.4359 1.4838-0.427 0.28601-0.77561 0.71371-1.246 0.9136-0.42113 0.17892-0.90992 0.0966-1.3468 0.2289-0.13565 0.041-0.25574 0.12549-0.38951 0.17268-0.28067 0.0991-0.60021 0.0853-0.86237 0.22891-0.19338 0.10588-0.31826 0.31039-0.49222 0.44775-0.37287 0.29444-0.77463 0.55069-1.1763 0.80116-0.68853 0.42936-1.3831 0.85274-2.1123 1.2027-4.2934 2.0609-9.2295 2.6798-13.261 5.2467-2.7027 1.7208-5.0746 4.0516-7.0442 6.6281-1.5909 2.0812-2.7027 4.5326-3.7285 6.9654-0.1964 0.4658-0.34789 0.95468-0.45928 1.4497-0.14321 0.63643-0.17223 1.2954-0.26549 1.9416-0.0293 0.20257-0.0689 0.40312-0.093 0.6064-0.31614 2.6546-1.0302 5.3401-0.68989 7.9915 0.85853 6.6894 2.3391 14.044 6.7671 18.993 3.0775 3.4395 7.8223 5.9376 12.348 5.8571 1.7141-0.43181 3.5359 0.0955 5.2924-0.0743 1.0222-0.0988 2.0235-0.35348 3.0328-0.54816 0.95753-0.18469 1.9227-0.33761 2.8661-0.58832 0.46592-0.12381 0.92488-0.27858 1.3759-0.45178 4.9447-1.8988 9.9425-3.7783 14.554-6.4293 2.5614-1.4726 4.7294-3.5878 7.2012-5.2166 0.19088-0.12578 0.40212-0.21949 0.58912-0.35137 0.68604-0.48385 1.3059-1.061 1.9476-1.6063 0.50831-0.43199 1.0143-0.8668 1.5057-1.3192 0.82704-0.76127 1.6612-1.5193 2.4262-2.3472 0.85998-0.93077 1.6428-1.9352 2.4243-2.9376 0.53319-0.68389 1.0642-1.3715 1.5445-2.0963 0.55515-0.83757 1.0621-1.7105 1.5426-2.5962 0.14142-0.26073 0.2749-0.52643 0.3934-0.79915 0.42126-0.9695 0.68504-2.0076 1.1259-2.9677 0.16895-0.36792 0.41831-0.69452 0.57943-1.0662 0.13788-0.31803 0.24743-0.64928 0.3275-0.98789 0.12895-0.54509 0.17393-1.1081 0.24418-1.6646 0.19074-1.5113 1.9372-4.3195 0.48253-4.5459-0.33856-0.0527-0.058 0.71962-0.19185 1.0461-0.0609 0.14869-0.11522 0.41982-0.26937 0.39556-0.3305-0.052-0.18562-0.66644-0.31006-0.98789-0.0859-0.22186-0.27209-0.40933-0.30037-0.64656-0.0167-0.13959 0.0542-0.2758 0.0814-0.41362 0.18219-0.92522 1.2911-2.2382 0.5426-2.7769-0.27451-0.19759-0.5195 0.5203-0.85266 0.54816-0.19046 0.0159-0.48032-0.0375-0.52904-0.22891-0.0689-0.27019 0.30066-0.46801 0.4961-0.66059 0.21176-0.20868 0.69791-0.22005 0.71895-0.52207 0.01-0.14414-0.19587-0.20675-0.30619-0.29516-0.13293-0.10657-0.32283-0.14187-0.42634-0.2791-0.6528-0.86546-0.70737-2.072-0.99801-3.1283-0.0459-0.16673-9.9e-4 -0.38001-0.11626-0.506-0.17832-0.19546-0.4889-0.19652-0.7461-0.23292-0.16392-0.0231-0.42317 0.16343-0.4961 0.0103-0.12898-0.27213 0.59938-0.4079 0.55036-0.70679-0.0228-0.13916-0.24365-0.13077-0.34688-0.22288-0.3614-0.32267-0.62801-0.7467-0.92631-1.1325-0.65404-0.84581-1.1964-1.7823-1.8914-2.5922-0.77547-0.90372-1.5942-1.7852-2.527-2.5119-0.56601-0.44094-1.1714-0.85776-1.839-1.1023-0.0781-0.0286-0.17507 4e-3 -0.24611-0.0402-0.51835-0.32347-0.60481-1.1248-1.0852-1.5059-0.51478-0.40844-1.2007-0.50978-1.8081-0.74494-0.11944-0.0463-0.24607-0.0764-0.36238-0.13051-1.1483-0.53478-2.0447-1.8051-3.3002-1.9015-0.32389-0.0249-0.60459 0.46752-0.91081 0.3554-0.25594-0.0937-0.21691-0.53414-0.41277-0.72887-0.50608-0.50318-1.1708-0.87327-1.8565-1.026-0.94331-0.21018-1.9288 0.29517-2.8894 0.20079-0.35327-0.0347-0.67765-0.2277-1.029-0.2791-1.1764-0.1723-2.4308-0.46285-3.5638-0.0923-0.3171 0.10367-0.47221 0.65605-0.80228 0.61441-0.12068-0.0152-0.18532-0.17506-0.23254-0.29114-0.0936-0.23007 0.11298-0.58948-0.0756-0.74494-0.10591-0.0873-0.22529-0.12373-0.35463-0.1285-0.0242-9e-4 -0.0488-1e-3 -0.0736 0zm-4.304 1.6866c0.28135-0.0127 0.69237 0.26102 0.63175 0.508-0.0544 0.22141-0.48503 0.1352-0.66276 0-0.12228-0.093-0.25277-0.34994-0.13565-0.44977 0.0439-0.0373 0.10174-0.0553 0.16666-0.0582zm-69.043 4.9013c-0.85906 6e-3 -1.6779 0.3852-2.5037 0.63048-0.13404 0.0398-0.26036 0.1092-0.39727 0.13654-0.6942 0.13874-1.412 0.0976-2.1181 0.13453-1.2361 0.0649-2.4719 0.11873-3.7091 0.15461-3.1899 0.0925-6.5518-0.9057-9.5732 0.15862-4.3959 1.5485-8.0251 5.0801-11.178 8.6119-3.1222 3.4977-4.96 8.0248-7.3427 12.1-0.12112 0.20713-0.25665 0.40769-0.3527 0.62848-1.2719 2.9233-2.1764 6.0194-2.9126 9.134-0.28332 1.1986-0.45163 2.4269-0.57362 3.6544-0.24853 2.5012-0.43991 5.0244-0.31781 7.5357 0.14196 2.9194-0.10753 6.0973 1.217 8.6782 2.0206 3.9372 5.5396 7.3895 9.5538 8.9974 3.8988-0.0982 7.9656 0.61868 11.687-0.58831 10.892-3.5322 19.966-11.619 29.043-18.786 1.6014-1.2644 3.0826-2.7014 4.4436-4.2387 1.4456-1.6328 2.9486-3.288 3.9223-5.2607 0.0523-0.10601 0.0585-0.22982 0.0988-0.34135 0.65302-1.809 1.7966-3.4175 2.3216-5.2708 0.17537-0.61904 0.21271-1.2727 0.2655-1.9155 0.12282-1.4958-0.12629-3.022 0.11821-4.5017 0.029-0.17521 0.11871-0.33518 0.1589-0.50801 0.0766-0.32958 0.25024-0.67903 0.15697-1.004-2.0253-7.056-8.2135-12.62-14.35-16.33-2.2616-1.3673-5.0401-1.8291-7.6585-1.8091zm-3.5521 6.3209c0.6119-0.0144 1.2141 0.0507 1.7887 0.25299 1.857 0.65395 3.105 2.4953 4.5172 3.9054 3.1484 3.1437 7.1908 5.8816 8.7709 10.106 0.42532 1.1371 0.30755 2.4746 0.0252 3.6584-0.65693 2.7542-2.3041 5.1805-3.8758 7.5036-0.56658 0.83746-1.2796 1.5609-1.9786 2.283-2.9936 3.0926-6.1335 6.0497-9.4646 8.7465-1.4519 1.1754-3.0541 2.136-4.5676 3.2247-0.97615 0.70218-1.9161 1.4586-2.9107 2.1324-0.27675 0.18748-0.5583 0.36848-0.8488 0.5321-1.0456 0.58892-2.1305 1.0994-3.2092 1.6204-1.8925 0.91402-3.6834 2.1752-5.7226 2.6404-2.7045 0.61701-5.9195 1.577-8.3077 0.12449-3.2786-1.9941-4.6683-6.5385-5.4145-10.401-0.4927-2.5504 0.43354-5.184 0.74802-7.7646 0.12104-0.99318 0.18183-2.0024 0.43797-2.9677 0.75509-2.8456 1.8289-5.6248 3.2091-8.2063 2.222-4.1559 4.3706-8.7355 8.0694-11.543 4.4401-3.3707 10.257-4.3676 15.672-5.3912 0.99497-0.1881 2.042-0.43176 3.0619-0.4558zm131.71 0.0181c-0.0164-5.4e-4 -0.0333 4.9e-4 -0.0504 2e-3 -2.2387 0.18504-1.7948 4.1554-2.3352 6.5398 0.39747-1.5109 1.1456-3.0322 1.9069-4.0038 0.0917-0.11707 0.27441-0.17855 0.41471-0.13855 0.23535 0.0671 0.24579 0.63183 0.48254 0.57025 0.47533-0.1237 0.3984-0.98109 0.32944-1.4838-0.0745-0.54349-0.2419-1.4695-0.74802-1.4858zm-59.036 1.3875c0.62485-0.0182 1.2504 4e-3 1.8778 0.0703 0.40234 0.0426 0.72095 0.38558 1.1027 0.52406 0.28585 0.1037 0.58828 0.14928 0.88174 0.2269 2.2971 0.60772 4.7282 0.8412 6.8795 1.8734 1.1364 0.54522 2.0855 1.4412 3.0793 2.2308 0.84892 0.67448 1.6683 1.3899 2.4572 2.1384 1.3663 1.2964 3.0808 2.3641 3.9339 4.068 0.20702 0.41349 0.26201 0.9129 0.22867 1.3774-0.18829 2.6225-1.0016 5.289-2.3914 7.4895-2.3411 3.7069-5.9911 6.4157-9.546 8.877-5.0175 3.4738-10.431 6.769-16.327 8.1039-3.4915 0.79059-7.5286 1.4833-10.72-0.18273-2.4195-1.2629-3.8991-4.0942-4.9436-6.6843-1.3979-3.4667-2.1245-7.4645-1.4922-11.164 0.71583-4.188 3.1979-7.9579 5.7749-11.268 0.75044-0.96403 1.7297-1.7378 2.7402-2.3994 0.63137-0.41341 1.3594-0.64054 2.0406-0.95777 0.51812-0.24128 1.0175-0.53189 1.5561-0.71884 4.1859-1.4528 8.4937-3.4767 12.868-3.6042zm137.42 0.8895c0.022 9e-4 0.0442 4e-3 0.0639 8e-3 0.20982 0.0439 0.48226 0.26651 0.4399 0.48391-0.0318 0.16317-0.28244 0.23379-0.4399 0.20079-0.20982-0.0439-0.48421-0.2665-0.44184-0.4839 0.0279-0.14278 0.22379-0.21507 0.37789-0.20883z" stroke-width="1.01"/><path d="m631.03 362.56c-1.7083-0.0165-3.2769 0.049-4.6348 0.20117-2.3222 0.26016-6.7217 0.75306-9.7773 1.0957-3.0556 0.34264-7.1077 0.75023-9.0059 0.90625-2.0309 0.16692-3.7095 0.5417-4.0781 0.91015-0.3445 0.34438-1.142 0.8213-1.7715 1.0606-1.3223 0.50253-1.4911 1.1918-0.36719 1.5 1.1318 0.31037 4.9431 1.0801 7 1.4141 0.9778 0.15877 1.9783 0.44604 2.2227 0.63867 0.6489 0.51137 10.399 4.0464 12.223 4.4316 0.8556 0.1807 2.5552 0.7453 3.7774 1.2539 1.2222 0.50862 4.7217 1.824 7.7773 2.9238 3.0555 1.0998 8.1562 2.9416 11.334 4.0918 3.1778 1.1501 6.7778 2.4501 8 2.8887 8.4683 3.039 22.916 11.626 28.008 16.646 0.7372 0.72694 2.2772 2.1653 3.4219 3.1973 5.2065 4.6938 8.7857 11.327 10.139 18.783 0.5601 3.0868 0.28174 10.519-0.53906 14.381-1.083 5.0963-5.0322 11.351-11.119 17.605-6.3537 6.5289-20.73 16.418-26.133 17.977-0.6111 0.17624-3.8905 1.4197-7.2871 2.7637-3.3967 1.344-8.8951 3.2349-12.221 4.2031-3.3255 0.9682-7.0473 2.0564-8.2695 2.418-3.3218 0.98283-9.4067 1.8625-17.051 2.4629-13.791 1.0831-28.132-0.88176-36.479-4.998-4.4451-2.1921-7.3429-4.9043-9.1191-8.5332-1.2324-2.5181-1.2558-2.699-0.98243-7.7695 0.3693-6.8494 1.3349-10.349 6.1484-22.295 2.9297-7.2708 8.674-16.576 13.256-21.473 6.862-7.3325 17.789-12.88 30.834-15.652 1.6788-0.35678 6.4801-0.85147 10.668-1.0996 4.1879-0.24813 7.9146-0.54255 8.2813-0.65429 0.8717-0.26567 11.307 0.94116 13.395 1.5488 0.8902 0.25907 1.8652 0.76657 2.166 1.1289 0.778 0.93703 1.3259 0.82654 2.7793-0.5625 0.7436-0.71066 1.7762-1.2227 2.4688-1.2227 1.0251 0 1.2094-0.20512 1.332-1.4844 0.1806-1.884-0.77718-2.9962-3.709-4.3047-7.5538-3.3712-29.066-4.7303-39.543-2.498-9.3697 1.9964-19.918 5.9983-26.203 9.9414-8.9976 5.6444-18.273 15.327-23.896 24.947-3.3568 5.7428-8.0925 17.369-9.6582 23.713-0.2564 1.0385-0.65 2.6384-0.875 3.5547-1.1718 4.7716-1.3193 12.268-0.30859 15.643 3.1487 10.515 11.169 17.594 24.178 21.336 7.471 2.1493 13.968 3.2025 21.652 3.5117 16.867 0.67881 27.693-0.25304 39.803-3.4258 6.2533-1.6384 10.184-2.8552 14.863-4.6016 1.9556-0.72991 5.4552-2.0238 7.7774-2.875 5.1172-1.8757 12.017-5.5168 17.494-9.2324 2.234-1.5155 5.0629-3.426 6.2852-4.2461 5.621-3.7715 14.388-12.108 17.992-17.109 4.6693-6.4787 6.0012-9.9485 8.2852-21.572 1.0408-5.2945 1.0531-14.762 0.0234-19.053-2.1168-8.8208-7.9038-19.097-14.166-25.16-5.2752-5.1072-9.3765-8.6743-10.801-9.3926-0.7333-0.3698-1.8323-1.1254-2.4434-1.6797-1.5744-1.4279-8.6997-5.5825-14.447-8.4258-4.7698-2.3596-15.989-6.3456-21.332-7.5781-5.8444-1.3483-12.242-2.1302-17.367-2.1797z" fill="#f69013"/></g></g></svg>
